<svg xmlns="http://www.w3.org/2000/svg" xmlns:xlink="http://www.w3.org/1999/xlink" width="3700" zoomAndPan="magnify" viewBox="0 0 2775 599.999999" height="800" preserveAspectRatio="xMidYMid meet" version="1.0"><defs><g/><clipPath id="ff99f48621"><path d="M 17.183594 147 L 220 147 L 220 196 L 17.183594 196 Z M 17.183594 147 " clip-rule="nonzero"/></clipPath><clipPath id="a6407316c5"><path d="M 263 147 L 465.683594 147 L 465.683594 196 L 263 196 Z M 263 147 " clip-rule="nonzero"/></clipPath><clipPath id="44f7522a80"><path d="M 19 21.238281 L 464 21.238281 L 464 120 L 19 120 Z M 19 21.238281 " clip-rule="nonzero"/></clipPath><clipPath id="2fd1bfc154"><path d="M 171 520 L 229 520 L 229 578.488281 L 171 578.488281 Z M 171 520 " clip-rule="nonzero"/></clipPath><clipPath id="772315b539"><path d="M 254 520 L 312 520 L 312 578.488281 L 254 578.488281 Z M 254 520 " clip-rule="nonzero"/></clipPath></defs><path fill="#ea392c" d="M 428.902344 196.933594 C 348.898438 189.308594 265.308594 181.617188 251.613281 230.261719 C 246.730469 229.78125 239.933594 229.726562 230.644531 229.796875 C 216.492188 189.46875 170.695312 185.644531 54.347656 196.46875 C 44.679688 197.363281 47.835938 209.378906 54.347656 208.773438 C 55.429688 208.773438 61.054688 208.195312 69.574219 207.433594 C 59.09375 287.300781 121.371094 340.195312 177.90625 324.242188 C 219.03125 312.644531 237.777344 274.074219 233.578125 242.175781 C 239.988281 242.300781 245.191406 242.648438 249.324219 242.859375 C 242.8125 306.523438 314.355469 351.410156 369.78125 313.734375 C 405.96875 289.148438 419.300781 250.40625 413.667969 207.871094 C 418.550781 208.285156 423.605469 208.734375 428.863281 209.238281 C 435.976562 209.914062 437.988281 197.804688 428.902344 196.933594 Z M 190.976562 305.441406 C 153.398438 327.628906 111.808594 308.695312 91.503906 272.195312 C 76.039062 244.300781 81.058594 220.046875 82.230469 206.359375 C 116.164062 203.671875 171.761719 200.898438 196.765625 210.613281 C 236.675781 226.136719 225.582031 285.003906 190.976562 305.441406 Z M 285.390625 301.121094 C 256.203125 277.027344 249.375 226.460938 285.714844 210.996094 C 284.394531 211.558594 298.296875 199.179688 401.15625 206.871094 C 414.789062 293.980469 332.78125 340.210938 285.421875 301.121094 Z M 285.390625 301.121094 " fill-opacity="1" fill-rule="nonzero"/><path fill="#023e8a" d="M 160.097656 222.984375 C 156.859375 222.984375 153.6875 223.457031 150.589844 224.402344 C 151.027344 224.75 151.449219 225.121094 151.847656 225.511719 C 152.246094 225.902344 152.625 226.308594 152.984375 226.738281 C 153.34375 227.167969 153.679688 227.613281 153.992188 228.078125 C 154.304688 228.542969 154.59375 229.019531 154.855469 229.511719 C 155.121094 230.003906 155.359375 230.507812 155.570312 231.027344 C 155.785156 231.542969 155.96875 232.070312 156.128906 232.605469 C 156.289062 233.140625 156.421875 233.683594 156.523438 234.230469 C 156.628906 234.78125 156.707031 235.335938 156.753906 235.890625 C 156.800781 236.449219 156.820312 237.007812 156.8125 237.566406 C 156.804688 238.125 156.765625 238.679688 156.699219 239.234375 C 156.636719 239.792969 156.542969 240.339844 156.421875 240.886719 C 156.300781 241.433594 156.148438 241.972656 155.972656 242.5 C 155.796875 243.03125 155.59375 243.550781 155.367188 244.0625 C 155.136719 244.570312 154.882812 245.070312 154.605469 245.554688 C 154.324219 246.035156 154.019531 246.503906 153.695312 246.957031 C 153.367188 247.410156 153.015625 247.847656 152.644531 248.265625 C 152.273438 248.683594 151.882812 249.082031 151.46875 249.457031 C 151.058594 249.835938 150.628906 250.191406 150.179688 250.527344 C 149.730469 250.859375 149.269531 251.171875 148.789062 251.457031 C 148.308594 251.746094 147.816406 252.007812 147.308594 252.242188 C 146.804688 252.480469 146.285156 252.691406 145.757812 252.875 C 145.230469 253.058594 144.695312 253.214844 144.152344 253.34375 C 143.605469 253.476562 143.058594 253.578125 142.503906 253.648438 C 141.949219 253.722656 141.394531 253.769531 140.835938 253.789062 C 140.277344 253.804688 139.71875 253.792969 139.160156 253.753906 C 138.601562 253.714844 138.050781 253.648438 137.5 253.550781 C 136.949219 253.457031 136.402344 253.332031 135.863281 253.179688 C 135.328125 253.027344 134.796875 252.851562 134.277344 252.644531 C 133.757812 252.441406 133.25 252.210938 132.753906 251.953125 C 132.257812 251.695312 131.773438 251.414062 131.304688 251.109375 C 130.839844 250.804688 130.386719 250.476562 129.953125 250.125 C 129.519531 249.773438 129.101562 249.398438 128.707031 249.007812 C 128.324219 250.925781 128.132812 252.867188 128.128906 254.824219 C 128.125 255.871094 128.175781 256.914062 128.277344 257.953125 C 128.378906 258.992188 128.53125 260.027344 128.734375 261.050781 C 128.9375 262.078125 129.1875 263.089844 129.492188 264.089844 C 129.792969 265.09375 130.144531 266.074219 130.542969 267.042969 C 130.941406 268.007812 131.386719 268.953125 131.878906 269.875 C 132.367188 270.796875 132.90625 271.691406 133.484375 272.5625 C 134.0625 273.433594 134.683594 274.273438 135.347656 275.082031 C 136.007812 275.890625 136.707031 276.664062 137.445312 277.402344 C 138.183594 278.144531 138.957031 278.847656 139.765625 279.511719 C 140.570312 280.175781 141.410156 280.796875 142.277344 281.378906 C 143.148438 281.960938 144.042969 282.5 144.960938 282.992188 C 145.882812 283.484375 146.828125 283.933594 147.792969 284.335938 C 148.757812 284.734375 149.738281 285.089844 150.738281 285.394531 C 151.738281 285.699219 152.753906 285.953125 153.777344 286.160156 C 154.800781 286.363281 155.835938 286.519531 156.875 286.621094 C 157.914062 286.726562 158.957031 286.777344 160.003906 286.777344 C 161.046875 286.78125 162.089844 286.730469 163.132812 286.628906 C 164.171875 286.527344 165.203125 286.375 166.230469 286.171875 C 167.253906 285.96875 168.269531 285.71875 169.269531 285.414062 C 170.269531 285.113281 171.253906 284.761719 172.21875 284.363281 C 173.183594 283.964844 174.128906 283.519531 175.050781 283.027344 C 175.972656 282.535156 176.871094 282 177.738281 281.421875 C 178.609375 280.839844 179.449219 280.21875 180.257812 279.558594 C 181.066406 278.894531 181.839844 278.195312 182.582031 277.457031 C 183.320312 276.71875 184.023438 275.945312 184.6875 275.140625 C 185.351562 274.332031 185.972656 273.496094 186.554688 272.625 C 187.136719 271.757812 187.675781 270.863281 188.167969 269.941406 C 188.660156 269.019531 189.109375 268.078125 189.511719 267.113281 C 189.910156 266.148438 190.265625 265.164062 190.570312 264.164062 C 190.875 263.164062 191.128906 262.152344 191.332031 261.125 C 191.539062 260.101562 191.691406 259.070312 191.796875 258.03125 C 191.898438 256.988281 191.953125 255.945312 191.953125 254.902344 C 191.953125 253.855469 191.90625 252.8125 191.804688 251.773438 C 191.703125 250.734375 191.550781 249.699219 191.347656 248.675781 C 191.144531 247.648438 190.890625 246.636719 190.589844 245.636719 C 190.289062 244.636719 189.9375 243.652344 189.539062 242.683594 C 189.136719 241.71875 188.691406 240.773438 188.203125 239.851562 C 187.710938 238.929688 187.175781 238.035156 186.59375 237.164062 C 186.015625 236.296875 185.394531 235.457031 184.730469 234.648438 C 184.070312 233.839844 183.367188 233.0625 182.628906 232.324219 C 181.890625 231.585938 181.121094 230.882812 180.3125 230.21875 C 179.503906 229.554688 178.667969 228.933594 177.796875 228.351562 C 176.929688 227.769531 176.035156 227.230469 175.113281 226.738281 C 174.191406 226.242188 173.25 225.796875 172.285156 225.394531 C 171.320312 224.992188 170.335938 224.640625 169.335938 224.335938 C 168.335938 224.03125 167.324219 223.777344 166.296875 223.574219 C 165.273438 223.367188 164.242188 223.214844 163.203125 223.109375 C 162.160156 223.007812 161.117188 222.953125 160.074219 222.953125 Z M 162.246094 269.199219 C 161.597656 269.199219 160.953125 269.132812 160.3125 269.007812 C 159.675781 268.878906 159.054688 268.691406 158.457031 268.441406 C 157.855469 268.191406 157.285156 267.886719 156.742188 267.523438 C 156.203125 267.164062 155.703125 266.75 155.242188 266.289062 C 154.785156 265.832031 154.375 265.328125 154.011719 264.789062 C 153.652344 264.246094 153.347656 263.675781 153.097656 263.074219 C 152.851562 262.472656 152.664062 261.855469 152.539062 261.214844 C 152.410156 260.578125 152.347656 259.933594 152.347656 259.28125 C 152.351562 258.632812 152.414062 257.988281 152.542969 257.351562 C 152.667969 256.710938 152.859375 256.09375 153.109375 255.492188 C 153.355469 254.890625 153.664062 254.320312 154.023438 253.78125 C 154.386719 253.242188 154.796875 252.742188 155.257812 252.28125 C 155.71875 251.820312 156.21875 251.410156 156.761719 251.050781 C 157.304688 250.691406 157.875 250.386719 158.476562 250.136719 C 159.078125 249.890625 159.695312 249.703125 160.335938 249.578125 C 160.972656 249.449219 161.617188 249.386719 162.269531 249.386719 C 162.917969 249.390625 163.5625 249.453125 164.199219 249.582031 C 164.839844 249.710938 165.457031 249.898438 166.058594 250.148438 C 166.660156 250.398438 167.230469 250.703125 167.769531 251.066406 C 168.308594 251.429688 168.808594 251.839844 169.269531 252.300781 C 169.726562 252.761719 170.136719 253.261719 170.5 253.804688 C 170.859375 254.34375 171.164062 254.917969 171.410156 255.515625 C 171.660156 256.117188 171.847656 256.738281 171.972656 257.375 C 172.097656 258.015625 172.160156 258.660156 172.160156 259.308594 C 172.160156 259.960938 172.09375 260.605469 171.96875 261.242188 C 171.839844 261.878906 171.652344 262.5 171.402344 263.097656 C 171.152344 263.699219 170.847656 264.269531 170.484375 264.808594 C 170.125 265.351562 169.710938 265.847656 169.253906 266.308594 C 168.792969 266.769531 168.292969 267.175781 167.75 267.539062 C 167.207031 267.898438 166.636719 268.203125 166.035156 268.449219 C 165.4375 268.699219 164.816406 268.886719 164.179688 269.011719 C 163.539062 269.136719 162.898438 269.199219 162.246094 269.199219 Z M 162.246094 269.199219 " fill-opacity="1" fill-rule="nonzero"/><path fill="#023e8a" d="M 291.242188 254.929688 C 291.257812 255.964844 291.328125 256.996094 291.445312 258.023438 C 291.5625 259.050781 291.730469 260.070312 291.945312 261.082031 C 292.164062 262.09375 292.429688 263.09375 292.742188 264.078125 C 293.058594 265.066406 293.417969 266.035156 293.828125 266.984375 C 294.234375 267.933594 294.691406 268.863281 295.1875 269.769531 C 295.6875 270.675781 296.230469 271.554688 296.8125 272.410156 C 297.398438 273.261719 298.023438 274.085938 298.6875 274.878906 C 299.351562 275.671875 300.050781 276.433594 300.789062 277.15625 C 301.527344 277.882812 302.300781 278.570312 303.105469 279.21875 C 303.910156 279.867188 304.746094 280.476562 305.609375 281.046875 C 306.472656 281.617188 307.363281 282.140625 308.277344 282.621094 C 309.195312 283.105469 310.128906 283.542969 311.089844 283.933594 C 312.046875 284.324219 313.019531 284.667969 314.011719 284.964844 C 315.003906 285.257812 316.007812 285.507812 317.019531 285.707031 C 318.035156 285.90625 319.058594 286.054688 320.089844 286.152344 C 321.117188 286.25 322.152344 286.300781 323.1875 286.300781 C 324.21875 286.296875 325.253906 286.246094 326.28125 286.144531 C 327.3125 286.042969 328.332031 285.890625 329.347656 285.691406 C 330.363281 285.492188 331.367188 285.242188 332.355469 284.941406 C 333.347656 284.644531 334.320312 284.296875 335.277344 283.90625 C 336.234375 283.511719 337.171875 283.074219 338.085938 282.589844 C 339 282.105469 339.886719 281.578125 340.75 281.007812 C 341.613281 280.4375 342.445312 279.824219 343.25 279.171875 C 344.054688 278.519531 344.824219 277.832031 345.5625 277.105469 C 346.296875 276.378906 346.996094 275.617188 347.660156 274.824219 C 348.320312 274.027344 348.945312 273.203125 349.527344 272.347656 C 350.109375 271.496094 350.648438 270.613281 351.144531 269.707031 C 351.640625 268.796875 352.09375 267.867188 352.5 266.917969 C 352.90625 265.964844 353.265625 264.996094 353.578125 264.007812 C 353.886719 263.023438 354.152344 262.023438 354.367188 261.011719 C 354.582031 260 354.746094 258.980469 354.863281 257.953125 C 354.976562 256.921875 355.042969 255.890625 355.058594 254.859375 C 355.058594 252.890625 354.871094 250.9375 354.496094 249.007812 C 352.964844 250.535156 351.199219 251.714844 349.199219 252.539062 C 347.195312 253.363281 345.113281 253.773438 342.949219 253.765625 C 342.097656 253.769531 341.253906 253.703125 340.414062 253.574219 C 339.574219 253.445312 338.75 253.253906 337.9375 252.996094 C 337.128906 252.738281 336.34375 252.421875 335.582031 252.042969 C 334.820312 251.667969 334.09375 251.230469 333.402344 250.742188 C 332.707031 250.25 332.054688 249.710938 331.445312 249.117188 C 330.835938 248.527344 330.273438 247.890625 329.761719 247.214844 C 329.25 246.535156 328.792969 245.824219 328.390625 245.074219 C 327.988281 244.324219 327.648438 243.550781 327.367188 242.75 C 327.082031 241.949219 326.863281 241.128906 326.710938 240.292969 C 326.554688 239.457031 326.464844 238.617188 326.4375 237.765625 C 326.414062 236.917969 326.453125 236.070312 326.558594 235.226562 C 326.664062 234.386719 326.835938 233.554688 327.070312 232.738281 C 327.300781 231.921875 327.597656 231.128906 327.953125 230.355469 C 328.3125 229.585938 328.726562 228.84375 329.195312 228.136719 C 329.667969 227.429688 330.1875 226.765625 330.761719 226.136719 C 331.335938 225.511719 331.957031 224.933594 332.621094 224.402344 C 329.519531 223.453125 326.347656 222.984375 323.105469 222.984375 C 322.058594 222.988281 321.019531 223.039062 319.976562 223.144531 C 318.9375 223.246094 317.90625 223.402344 316.882812 223.605469 C 315.855469 223.8125 314.84375 224.066406 313.84375 224.371094 C 312.84375 224.675781 311.863281 225.027344 310.898438 225.429688 C 309.933594 225.832031 308.992188 226.277344 308.070312 226.773438 C 307.148438 227.265625 306.253906 227.804688 305.386719 228.386719 C 304.519531 228.96875 303.679688 229.589844 302.875 230.253906 C 302.066406 230.917969 301.292969 231.621094 300.558594 232.359375 C 299.820312 233.097656 299.117188 233.875 298.457031 234.683594 C 297.796875 235.492188 297.175781 236.328125 296.59375 237.199219 C 296.015625 238.070312 295.480469 238.964844 294.988281 239.886719 C 294.496094 240.808594 294.050781 241.753906 293.652344 242.71875 C 293.253906 243.683594 292.90625 244.667969 292.601562 245.667969 C 292.300781 246.667969 292.046875 247.679688 291.847656 248.707031 C 291.644531 249.730469 291.492188 250.765625 291.390625 251.804688 C 291.289062 252.84375 291.238281 253.886719 291.242188 254.929688 Z M 311.050781 259.308594 C 311.050781 258.660156 311.113281 258.015625 311.238281 257.375 C 311.363281 256.738281 311.550781 256.117188 311.800781 255.515625 C 312.046875 254.917969 312.351562 254.34375 312.710938 253.804688 C 313.074219 253.261719 313.480469 252.761719 313.941406 252.300781 C 314.402344 251.839844 314.902344 251.429688 315.441406 251.066406 C 315.980469 250.703125 316.550781 250.398438 317.152344 250.148438 C 317.753906 249.898438 318.371094 249.710938 319.011719 249.582031 C 319.648438 249.453125 320.292969 249.390625 320.941406 249.386719 C 321.59375 249.386719 322.238281 249.449219 322.875 249.578125 C 323.515625 249.703125 324.132812 249.890625 324.734375 250.136719 C 325.335938 250.386719 325.90625 250.691406 326.449219 251.050781 C 326.988281 251.410156 327.492188 251.820312 327.953125 252.28125 C 328.410156 252.742188 328.824219 253.242188 329.183594 253.78125 C 329.546875 254.320312 329.851562 254.890625 330.101562 255.492188 C 330.351562 256.09375 330.542969 256.710938 330.667969 257.351562 C 330.796875 257.988281 330.859375 258.632812 330.863281 259.28125 C 330.863281 259.933594 330.800781 260.578125 330.671875 261.214844 C 330.546875 261.855469 330.359375 262.472656 330.109375 263.074219 C 329.863281 263.675781 329.558594 264.246094 329.199219 264.789062 C 328.835938 265.328125 328.425781 265.832031 327.96875 266.289062 C 327.507812 266.75 327.007812 267.164062 326.464844 267.523438 C 325.925781 267.886719 325.355469 268.191406 324.753906 268.441406 C 324.152344 268.691406 323.535156 268.878906 322.898438 269.007812 C 322.257812 269.132812 321.613281 269.199219 320.964844 269.199219 C 320.3125 269.199219 319.667969 269.136719 319.03125 269.011719 C 318.394531 268.886719 317.773438 268.699219 317.171875 268.453125 C 316.570312 268.207031 316 267.902344 315.457031 267.539062 C 314.917969 267.179688 314.417969 266.769531 313.957031 266.3125 C 313.496094 265.851562 313.085938 265.351562 312.722656 264.8125 C 312.359375 264.269531 312.054688 263.699219 311.804688 263.101562 C 311.558594 262.5 311.367188 261.878906 311.242188 261.242188 C 311.113281 260.605469 311.050781 259.960938 311.050781 259.308594 Z M 311.050781 259.308594 " fill-opacity="1" fill-rule="nonzero"/><g clip-path="url(#ff99f48621)"><path fill="#023e8a" d="M 219.960938 195.410156 C 204.398438 185.148438 187.234375 182.105469 170.132812 181.574219 C 153.03125 181.046875 135.753906 183.84375 117.5 185.578125 C 112.925781 185.984375 108.316406 186.394531 103.660156 186.628906 C 99.007812 186.863281 94.261719 186.945312 89.5 186.824219 C 84.671875 186.6875 79.863281 186.300781 75.078125 185.660156 C 70.238281 184.960938 65.472656 183.933594 60.777344 182.574219 C 56.085938 181.175781 51.53125 179.417969 47.121094 177.292969 C 42.71875 175.136719 38.5625 172.578125 34.652344 169.617188 C 30.789062 166.644531 27.34375 163.246094 24.316406 159.429688 C 21.40625 155.648438 19.113281 151.523438 17.4375 147.058594 C 20.675781 150.214844 24.167969 153.066406 27.90625 155.609375 C 31.578125 157.9375 35.414062 159.953125 39.414062 161.660156 C 47.3125 164.871094 55.496094 167.011719 63.960938 168.070312 C 80.667969 170.375 97.792969 168.460938 115.730469 166.792969 L 129.324219 165.605469 C 133.921875 165.3125 138.554688 164.988281 143.242188 164.890625 C 152.820312 164.5625 162.332031 165.222656 171.777344 166.867188 C 176.535156 167.75 181.214844 168.957031 185.808594 170.480469 C 190.40625 172.039062 194.839844 173.976562 199.109375 176.292969 C 203.335938 178.644531 207.261719 181.421875 210.886719 184.625 C 214.398438 187.808594 217.421875 191.40625 219.960938 195.410156 Z M 219.960938 195.410156 " fill-opacity="1" fill-rule="nonzero"/></g><path fill="#023e8a" d="M 213.667969 182.386719 C 207.507812 179.804688 201.222656 177.558594 194.820312 175.65625 C 188.75 173.917969 182.585938 172.632812 176.328125 171.808594 C 170.28125 171.035156 164.210938 170.761719 158.121094 170.992188 C 155.125 171.15625 152.171875 171.296875 149.117188 171.734375 C 146.066406 172.175781 142.964844 172.546875 139.808594 173.070312 L 130.039062 174.632812 C 126.710938 175.085938 123.332031 175.625 119.84375 175.957031 C 116.351562 176.292969 112.792969 176.5625 109.164062 176.527344 C 105.441406 176.574219 101.746094 176.304688 98.070312 175.714844 C 90.5625 174.597656 83.617188 171.988281 77.234375 167.886719 C 71.015625 163.765625 65.914062 157.664062 64.140625 150.859375 C 66.578125 152.960938 69.234375 154.734375 72.109375 156.1875 C 74.980469 157.640625 77.988281 158.726562 81.125 159.445312 C 87.023438 160.785156 92.992188 161.261719 99.03125 160.878906 C 110.800781 160.273438 123.105469 156.597656 136.789062 154.421875 C 143.632812 153.398438 150.925781 152.625 158.355469 153.128906 C 165.710938 153.582031 172.863281 155.019531 179.820312 157.449219 C 193.507812 162.261719 205.824219 170.773438 213.667969 182.386719 Z M 213.667969 182.386719 " fill-opacity="1" fill-rule="nonzero"/><g clip-path="url(#a6407316c5)"><path fill="#023e8a" d="M 263.234375 195.410156 C 278.796875 185.148438 295.960938 182.105469 313.054688 181.574219 C 330.144531 181.046875 347.433594 183.84375 365.695312 185.578125 C 370.261719 185.984375 374.875 186.394531 379.53125 186.628906 C 384.1875 186.863281 388.941406 186.945312 393.703125 186.824219 C 398.523438 186.695312 403.328125 186.316406 408.109375 185.683594 C 412.945312 184.988281 417.714844 183.957031 422.410156 182.601562 C 427.105469 181.203125 431.660156 179.441406 436.074219 177.316406 C 440.476562 175.160156 444.632812 172.601562 448.542969 169.644531 C 452.398438 166.660156 455.835938 163.253906 458.855469 159.429688 C 461.769531 155.648438 464.066406 151.527344 465.742188 147.058594 C 462.511719 150.210938 459.039062 153.0625 455.3125 155.609375 C 451.652344 157.9375 447.828125 159.953125 443.839844 161.660156 C 435.9375 164.871094 427.753906 167.011719 419.292969 168.070312 C 402.589844 170.375 385.457031 168.460938 367.527344 166.792969 L 353.925781 165.605469 C 349.335938 165.3125 344.699219 164.988281 340.019531 164.890625 C 330.433594 164.5625 320.921875 165.222656 311.472656 166.867188 C 306.707031 167.75 302.019531 168.957031 297.417969 170.480469 C 292.820312 172.042969 288.386719 173.980469 284.121094 176.292969 C 279.894531 178.648438 275.96875 181.425781 272.34375 184.625 C 268.820312 187.808594 265.78125 191.40625 263.234375 195.410156 Z M 263.234375 195.410156 " fill-opacity="1" fill-rule="nonzero"/></g><path fill="#023e8a" d="M 269.542969 182.386719 C 275.703125 179.804688 281.988281 177.558594 288.390625 175.65625 C 294.457031 173.917969 300.621094 172.632812 306.875 171.808594 C 312.925781 171.035156 318.996094 170.761719 325.089844 170.992188 C 328.085938 171.15625 331.046875 171.296875 334.101562 171.734375 C 337.152344 172.175781 340.253906 172.546875 343.410156 173.070312 L 353.136719 174.632812 C 356.464844 175.085938 359.851562 175.625 363.34375 175.957031 C 366.835938 176.292969 370.390625 176.5625 374.023438 176.527344 C 377.742188 176.574219 381.4375 176.304688 385.109375 175.714844 C 392.617188 174.601562 399.566406 171.992188 405.953125 167.886719 C 412.160156 163.765625 417.273438 157.664062 419.046875 150.859375 C 416.609375 152.960938 413.953125 154.734375 411.078125 156.1875 C 408.203125 157.640625 405.199219 158.726562 402.0625 159.445312 C 396.160156 160.785156 390.191406 161.261719 384.15625 160.878906 C 372.394531 160.273438 360.082031 156.597656 346.40625 154.421875 C 339.554688 153.398438 332.261719 152.625 324.839844 153.128906 C 317.484375 153.582031 310.332031 155.019531 303.375 157.449219 C 289.695312 162.261719 277.386719 170.773438 269.542969 182.386719 Z M 269.542969 182.386719 " fill-opacity="1" fill-rule="nonzero"/><path fill="#0077b6" d="M 241.445312 189.992188 C 241.496094 189.90625 241.550781 189.828125 241.617188 189.753906 C 241.667969 189.828125 241.707031 189.917969 241.757812 189.992188 Z M 241.445312 189.992188 " fill-opacity="1" fill-rule="nonzero"/><path fill="#0077b6" d="M 360.96875 67.082031 L 360.96875 140.804688 C 337.804688 139.578125 314.519531 139.617188 292.421875 146.195312 C 272.074219 152.242188 252.6875 165.027344 241.625 182.664062 C 230.539062 165.027344 211.144531 152.273438 190.796875 146.195312 C 168.691406 139.617188 145.390625 139.578125 122.226562 140.804688 L 122.226562 67.082031 Z M 360.96875 67.082031 " fill-opacity="1" fill-rule="nonzero"/><path fill="#023e8a" d="M 132.597656 366.648438 C 154.105469 396.042969 160.179688 434.761719 155.074219 470.824219 C 151.886719 493.320312 144.722656 514.980469 135.386719 535.75 C 132.519531 534.183594 129.6875 532.550781 126.902344 530.84375 C 124.113281 529.140625 121.367188 527.367188 118.667969 525.523438 C 115.96875 523.683594 113.316406 521.777344 110.710938 519.804688 C 108.105469 517.832031 105.546875 515.792969 103.042969 513.695312 C 100.539062 511.59375 98.089844 509.433594 95.691406 507.210938 C 93.292969 504.988281 90.953125 502.710938 88.667969 500.371094 C 86.386719 498.035156 84.160156 495.640625 81.996094 493.191406 C 79.832031 490.746094 77.726562 488.246094 75.6875 485.691406 C 73.644531 483.140625 71.667969 480.539062 69.757812 477.886719 C 67.84375 475.234375 66 472.539062 64.222656 469.796875 C 62.441406 467.054688 60.734375 464.269531 59.09375 461.441406 C 57.453125 458.617188 55.886719 455.75 54.386719 452.84375 C 52.890625 449.9375 51.464844 447 50.113281 444.023438 C 48.761719 441.046875 47.484375 438.039062 46.28125 435 C 45.082031 431.960938 43.953125 428.894531 42.90625 425.800781 C 41.855469 422.703125 40.882812 419.585938 39.988281 416.441406 C 39.089844 413.296875 38.273438 410.132812 37.535156 406.949219 C 36.796875 403.765625 36.140625 400.566406 35.558594 397.347656 C 34.980469 394.132812 34.480469 390.902344 34.0625 387.664062 C 33.644531 384.421875 33.304688 381.171875 33.046875 377.914062 C 32.789062 374.65625 32.613281 371.390625 32.515625 368.125 C 32.421875 364.859375 32.40625 361.589844 32.472656 358.324219 C 32.539062 355.054688 32.6875 351.792969 32.917969 348.53125 C 33.144531 345.269531 33.453125 342.019531 33.84375 338.773438 C 34.234375 335.527344 34.703125 332.292969 35.253906 329.074219 C 35.804688 325.851562 36.433594 322.644531 37.144531 319.453125 C 37.855469 316.265625 38.644531 313.09375 39.511719 309.941406 C 40.375 306.789062 41.320312 303.664062 42.34375 300.558594 C 43.367188 297.453125 44.464844 294.375 45.640625 291.328125 C 46.816406 288.277344 48.066406 285.257812 49.390625 282.269531 C 50.714844 279.28125 52.113281 276.328125 53.585938 273.410156 C 55.054688 270.492188 56.597656 267.613281 58.214844 264.769531 C 59.273438 284.441406 70.976562 302.84375 84.683594 317.496094 C 100.332031 334.238281 119.101562 348.164062 132.597656 366.648438 Z M 132.597656 366.648438 " fill-opacity="1" fill-rule="nonzero"/><path fill="#023e8a" d="M 450.78125 362.8125 C 450.789062 367.242188 450.648438 371.667969 450.355469 376.085938 C 450.066406 380.507812 449.625 384.914062 449.035156 389.304688 C 448.445312 393.695312 447.710938 398.058594 446.824219 402.398438 C 445.941406 406.738281 444.910156 411.046875 443.734375 415.316406 C 442.558594 419.585938 441.242188 423.8125 439.777344 427.996094 C 438.316406 432.175781 436.714844 436.304688 434.976562 440.375 C 433.234375 444.449219 431.355469 448.460938 429.34375 452.40625 C 427.332031 456.351562 425.191406 460.226562 422.914062 464.027344 C 420.640625 467.828125 418.242188 471.546875 415.714844 475.1875 C 413.1875 478.824219 410.542969 482.375 407.777344 485.835938 C 405.011719 489.292969 402.132812 492.65625 399.136719 495.921875 C 396.144531 499.1875 393.042969 502.347656 389.835938 505.402344 C 386.628906 508.457031 383.320312 511.402344 379.914062 514.230469 C 376.507812 517.0625 373.011719 519.777344 369.421875 522.371094 C 365.832031 524.96875 362.15625 527.4375 358.398438 529.785156 C 354.644531 532.128906 350.808594 534.347656 346.902344 536.433594 C 337.398438 515.46875 330.097656 493.582031 326.882812 470.84375 C 321.800781 434.769531 327.851562 396.054688 349.359375 366.664062 C 362.878906 348.179688 381.648438 334.253906 397.265625 317.542969 C 411.429688 302.398438 423.484375 283.179688 423.855469 262.785156 L 424.851562 264.511719 C 429.097656 271.964844 432.847656 279.664062 436.089844 287.605469 C 439.335938 295.550781 442.054688 303.667969 444.242188 311.964844 C 446.433594 320.261719 448.074219 328.667969 449.167969 337.175781 C 450.261719 345.6875 450.800781 354.234375 450.78125 362.8125 Z M 450.78125 362.8125 " fill-opacity="1" fill-rule="nonzero"/><path fill="#023e8a" d="M 259.164062 304.300781 C 258.539062 312.042969 247.039062 328.546875 241.640625 329.445312 C 236.253906 328.546875 224.746094 312.042969 224.125 304.300781 C 224.746094 296.5625 236.253906 280.046875 241.640625 279.152344 C 246.996094 280.054688 258.507812 296.5625 259.164062 304.300781 Z M 259.164062 304.300781 " fill-opacity="1" fill-rule="nonzero"/><g clip-path="url(#44f7522a80)"><path fill="#023e8a" d="M 241.601562 21.238281 L 19.421875 70.160156 L 241.601562 119.082031 L 463.777344 70.160156 Z M 241.601562 21.238281 " fill-opacity="1" fill-rule="nonzero"/></g><g clip-path="url(#2fd1bfc154)"><path fill="#0077b6" d="M 217.964844 520.894531 C 217.335938 520.898438 216.714844 520.957031 216.097656 521.070312 C 215.476562 521.183594 214.875 521.351562 214.285156 521.570312 C 213.695312 521.792969 213.132812 522.0625 212.589844 522.382812 C 212.050781 522.703125 211.542969 523.066406 211.066406 523.476562 C 210.589844 523.886719 210.15625 524.335938 209.757812 524.824219 C 209.363281 525.3125 209.011719 525.832031 208.707031 526.382812 C 208.402344 526.929688 208.148438 527.503906 207.945312 528.097656 C 207.742188 528.695312 207.59375 529.300781 207.5 529.921875 C 206.953125 529.535156 206.375 529.203125 205.765625 528.925781 C 205.15625 528.648438 204.527344 528.433594 203.875 528.277344 C 203.226562 528.121094 202.566406 528.027344 201.898438 527.996094 C 201.230469 527.96875 200.5625 528 199.902344 528.097656 C 199.238281 528.195312 198.59375 528.355469 197.960938 528.574219 C 197.328125 528.796875 196.722656 529.074219 196.144531 529.414062 C 195.566406 529.75 195.027344 530.136719 194.523438 530.578125 C 194.019531 531.019531 193.5625 531.503906 193.148438 532.03125 L 193.148438 531.550781 C 193.148438 530.851562 193.082031 530.160156 192.945312 529.476562 C 192.808594 528.789062 192.609375 528.125 192.339844 527.480469 C 192.074219 526.835938 191.746094 526.222656 191.355469 525.640625 C 190.96875 525.058594 190.527344 524.523438 190.035156 524.027344 C 189.539062 523.535156 189.003906 523.09375 188.421875 522.707031 C 187.839844 522.316406 187.226562 521.988281 186.582031 521.722656 C 185.9375 521.457031 185.273438 521.253906 184.585938 521.117188 C 183.902344 520.980469 183.210938 520.914062 182.511719 520.914062 C 181.8125 520.914062 181.121094 520.980469 180.4375 521.117188 C 179.753906 521.253906 179.085938 521.457031 178.441406 521.722656 C 177.796875 521.988281 177.183594 522.316406 176.601562 522.707031 C 176.023438 523.09375 175.484375 523.535156 174.992188 524.027344 C 174.496094 524.523438 174.054688 525.058594 173.667969 525.640625 C 173.28125 526.222656 172.953125 526.835938 172.683594 527.480469 C 172.417969 528.125 172.214844 528.789062 172.078125 529.476562 C 171.941406 530.160156 171.875 530.851562 171.875 531.550781 L 171.875 559.914062 C 171.867188 561.019531 172.027344 562.097656 172.359375 563.152344 C 172.6875 564.207031 173.171875 565.183594 173.808594 566.085938 C 174.445312 566.988281 175.203125 567.773438 176.085938 568.4375 C 176.96875 569.101562 177.929688 569.617188 178.972656 569.980469 C 180.015625 570.34375 181.089844 570.539062 182.191406 570.566406 C 183.296875 570.59375 184.378906 570.453125 185.4375 570.140625 C 186.5 569.828125 187.484375 569.363281 188.398438 568.742188 C 189.3125 568.121094 190.109375 567.378906 190.789062 566.507812 L 190.789062 567.003906 C 190.734375 567.695312 190.75 568.386719 190.832031 569.078125 C 190.917969 569.769531 191.066406 570.441406 191.28125 571.105469 C 191.496094 571.765625 191.773438 572.398438 192.117188 573.003906 C 192.457031 573.609375 192.851562 574.175781 193.304688 574.703125 C 193.757812 575.230469 194.257812 575.710938 194.800781 576.140625 C 195.347656 576.570312 195.933594 576.941406 196.550781 577.253906 C 197.171875 577.570312 197.816406 577.820312 198.484375 578.007812 C 199.152344 578.195312 199.835938 578.316406 200.527344 578.371094 C 201.222656 578.421875 201.914062 578.410156 202.601562 578.324219 C 203.292969 578.242188 203.96875 578.09375 204.628906 577.878906 C 205.289062 577.664062 205.921875 577.382812 206.527344 577.042969 C 207.132812 576.703125 207.699219 576.308594 208.226562 575.855469 C 208.753906 575.402344 209.234375 574.902344 209.664062 574.355469 C 210.09375 573.808594 210.464844 573.226562 210.78125 572.609375 C 211.09375 571.988281 211.34375 571.34375 211.53125 570.675781 C 211.71875 570.003906 211.839844 569.324219 211.894531 568.632812 C 213.714844 569.917969 215.738281 570.566406 217.964844 570.570312 C 218.664062 570.566406 219.355469 570.496094 220.039062 570.359375 C 220.722656 570.222656 221.386719 570.019531 222.03125 569.75 C 222.675781 569.480469 223.289062 569.152344 223.867188 568.765625 C 224.449219 568.378906 224.984375 567.9375 225.476562 567.445312 C 225.972656 566.949219 226.414062 566.414062 226.800781 565.832031 C 227.1875 565.253906 227.515625 564.640625 227.785156 563.996094 C 228.054688 563.351562 228.257812 562.6875 228.394531 562.003906 C 228.53125 561.320312 228.601562 560.628906 228.601562 559.929688 L 228.601562 531.550781 C 228.601562 530.851562 228.535156 530.160156 228.398438 529.472656 C 228.261719 528.789062 228.058594 528.125 227.792969 527.476562 C 227.523438 526.832031 227.195312 526.21875 226.808594 525.636719 C 226.421875 525.058594 225.980469 524.519531 225.484375 524.023438 C 224.992188 523.53125 224.457031 523.089844 223.875 522.699219 C 223.292969 522.3125 222.683594 521.984375 222.035156 521.714844 C 221.390625 521.445312 220.726562 521.242188 220.042969 521.105469 C 219.355469 520.96875 218.664062 520.898438 217.964844 520.894531 Z M 217.964844 520.894531 " fill-opacity="1" fill-rule="nonzero"/></g><g clip-path="url(#772315b539)"><path fill="#0077b6" d="M 265.238281 520.894531 C 265.867188 520.898438 266.488281 520.957031 267.105469 521.070312 C 267.726562 521.183594 268.328125 521.351562 268.917969 521.574219 C 269.507812 521.792969 270.070312 522.0625 270.613281 522.382812 C 271.152344 522.703125 271.660156 523.070312 272.136719 523.480469 C 272.613281 523.890625 273.050781 524.339844 273.445312 524.828125 C 273.84375 525.3125 274.195312 525.832031 274.5 526.382812 C 274.804688 526.933594 275.058594 527.503906 275.261719 528.097656 C 275.464844 528.695312 275.617188 529.300781 275.710938 529.921875 C 276.257812 529.53125 276.835938 529.199219 277.445312 528.917969 C 278.058594 528.640625 278.6875 528.421875 279.339844 528.265625 C 279.992188 528.109375 280.65625 528.011719 281.324219 527.984375 C 281.996094 527.953125 282.664062 527.984375 283.328125 528.082031 C 283.992188 528.179688 284.640625 528.339844 285.273438 528.5625 C 285.90625 528.78125 286.511719 529.0625 287.09375 529.402344 C 287.671875 529.738281 288.214844 530.128906 288.71875 530.570312 C 289.222656 531.015625 289.683594 531.5 290.09375 532.03125 L 290.09375 531.550781 C 290.113281 530.863281 290.195312 530.1875 290.347656 529.515625 C 290.496094 528.847656 290.710938 528.199219 290.984375 527.570312 C 291.261719 526.941406 291.59375 526.347656 291.984375 525.78125 C 292.375 525.21875 292.816406 524.699219 293.308594 524.21875 C 293.800781 523.742188 294.335938 523.3125 294.910156 522.9375 C 295.484375 522.5625 296.089844 522.246094 296.722656 521.988281 C 297.359375 521.730469 298.015625 521.535156 298.6875 521.402344 C 299.359375 521.273438 300.039062 521.207031 300.726562 521.207031 C 301.414062 521.207031 302.09375 521.273438 302.765625 521.402344 C 303.4375 521.535156 304.09375 521.730469 304.730469 521.988281 C 305.367188 522.246094 305.96875 522.5625 306.542969 522.9375 C 307.117188 523.3125 307.652344 523.742188 308.144531 524.21875 C 308.636719 524.699219 309.078125 525.21875 309.46875 525.78125 C 309.859375 526.347656 310.191406 526.941406 310.46875 527.570312 C 310.742188 528.199219 310.957031 528.847656 311.105469 529.515625 C 311.257812 530.1875 311.339844 530.863281 311.359375 531.550781 L 311.359375 559.914062 C 311.367188 561.019531 311.207031 562.097656 310.875 563.148438 C 310.542969 564.203125 310.0625 565.179688 309.425781 566.078125 C 308.789062 566.980469 308.03125 567.765625 307.148438 568.429688 C 306.265625 569.09375 305.304688 569.605469 304.261719 569.96875 C 303.222656 570.332031 302.148438 570.527344 301.046875 570.554688 C 299.941406 570.582031 298.863281 570.441406 297.804688 570.132812 C 296.746094 569.820312 295.757812 569.355469 294.84375 568.738281 C 293.929688 568.121094 293.132812 567.375 292.453125 566.507812 L 292.453125 567.003906 C 292.507812 567.695312 292.492188 568.386719 292.410156 569.078125 C 292.324219 569.769531 292.175781 570.445312 291.960938 571.105469 C 291.742188 571.765625 291.464844 572.398438 291.125 573.003906 C 290.785156 573.609375 290.386719 574.175781 289.933594 574.703125 C 289.484375 575.230469 288.984375 575.710938 288.4375 576.136719 C 287.890625 576.566406 287.308594 576.941406 286.6875 577.253906 C 286.066406 577.570312 285.421875 577.820312 284.753906 578.007812 C 284.085938 578.195312 283.402344 578.316406 282.710938 578.367188 C 282.019531 578.421875 281.328125 578.40625 280.636719 578.324219 C 279.945312 578.242188 279.269531 578.09375 278.609375 577.878906 C 277.949219 577.660156 277.316406 577.382812 276.710938 577.042969 C 276.105469 576.703125 275.539062 576.304688 275.011719 575.855469 C 274.480469 575.402344 274.003906 574.902344 273.574219 574.355469 C 273.144531 573.808594 272.773438 573.226562 272.457031 572.609375 C 272.144531 571.988281 271.890625 571.34375 271.703125 570.675781 C 271.515625 570.003906 271.394531 569.324219 271.339844 568.632812 C 269.523438 569.921875 267.5 570.566406 265.269531 570.570312 C 264.570312 570.566406 263.882812 570.496094 263.195312 570.359375 C 262.511719 570.222656 261.847656 570.019531 261.203125 569.75 C 260.5625 569.480469 259.949219 569.152344 259.367188 568.765625 C 258.789062 568.378906 258.253906 567.9375 257.761719 567.441406 C 257.265625 566.949219 256.828125 566.414062 256.4375 565.832031 C 256.050781 565.253906 255.722656 564.640625 255.457031 563.996094 C 255.1875 563.351562 254.984375 562.6875 254.847656 562.003906 C 254.710938 561.320312 254.640625 560.628906 254.640625 559.929688 L 254.640625 531.550781 C 254.640625 530.851562 254.707031 530.164062 254.84375 529.480469 C 254.980469 528.796875 255.179688 528.132812 255.449219 527.488281 C 255.714844 526.84375 256.039062 526.230469 256.425781 525.652344 C 256.8125 525.070312 257.25 524.535156 257.742188 524.039062 C 258.234375 523.546875 258.769531 523.101562 259.347656 522.714844 C 259.925781 522.324219 260.535156 521.996094 261.179688 521.726562 C 261.820312 521.457031 262.484375 521.25 263.167969 521.113281 C 263.851562 520.972656 264.539062 520.902344 265.238281 520.894531 Z M 265.238281 520.894531 " fill-opacity="1" fill-rule="nonzero"/></g><path fill="#ea392c" d="M 214.5625 396.019531 C 208.574219 396.019531 204.054688 390.226562 204.054688 382.542969 C 204.054688 380.582031 205.863281 378.992188 208.125 378.992188 C 210.386719 378.992188 212.195312 380.582031 212.195312 382.542969 C 212.195312 386.496094 214.003906 388.742188 214.6875 388.929688 C 215.246094 388.742188 217.054688 386.488281 217.054688 382.542969 C 217.054688 380.582031 218.859375 378.992188 221.125 378.992188 C 223.386719 378.992188 225.191406 380.582031 225.191406 382.542969 C 225.078125 390.226562 220.5625 396.019531 214.5625 396.019531 Z M 214.5625 396.019531 " fill-opacity="1" fill-rule="nonzero"/><path fill="#ea392c" d="M 268.640625 396.019531 C 262.648438 396.019531 258.125 390.226562 258.125 382.542969 C 258.125 380.582031 259.9375 378.992188 262.191406 378.992188 C 264.449219 378.992188 266.261719 380.582031 266.261719 382.542969 C 266.261719 386.496094 268.070312 388.742188 268.753906 388.929688 C 269.316406 388.742188 271.113281 386.488281 271.113281 382.542969 C 271.113281 380.582031 272.929688 378.992188 275.183594 378.992188 C 277.4375 378.992188 279.253906 380.582031 279.253906 382.542969 C 279.15625 390.226562 274.628906 396.019531 268.640625 396.019531 Z M 268.640625 396.019531 " fill-opacity="1" fill-rule="nonzero"/><path fill="#ea392c" d="M 186.523438 429.398438 C 180.535156 429.398438 176.015625 423.601562 176.015625 415.921875 C 176.015625 413.964844 177.824219 412.371094 180.085938 412.371094 C 182.347656 412.371094 184.15625 414 184.15625 415.921875 C 184.15625 419.875 185.964844 422.121094 186.648438 422.308594 C 187.207031 422.121094 189.015625 419.867188 189.015625 415.921875 C 189.015625 413.964844 190.820312 412.371094 193.085938 412.371094 C 195.347656 412.371094 197.15625 414 197.15625 415.921875 C 197.039062 423.601562 192.523438 429.398438 186.523438 429.398438 Z M 186.523438 429.398438 " fill-opacity="1" fill-rule="nonzero"/><path fill="#ea392c" d="M 241.601562 429.398438 C 235.609375 429.398438 231.085938 423.601562 231.085938 415.921875 C 231.085938 413.964844 232.902344 412.371094 235.15625 412.371094 C 237.410156 412.371094 239.226562 414 239.226562 415.921875 C 239.226562 419.875 241.03125 422.121094 241.714844 422.308594 C 242.277344 422.121094 244.074219 419.867188 244.074219 415.921875 C 244.074219 413.964844 245.890625 412.371094 248.144531 412.371094 C 250.398438 412.371094 252.214844 414 252.214844 415.921875 C 252.117188 423.601562 247.601562 429.398438 241.601562 429.398438 Z M 241.601562 429.398438 " fill-opacity="1" fill-rule="nonzero"/><path fill="#ea392c" d="M 296.675781 429.398438 C 290.6875 429.398438 286.164062 423.601562 286.164062 415.921875 C 286.164062 413.964844 287.976562 412.371094 290.230469 412.371094 C 292.484375 412.371094 294.300781 414 294.300781 415.921875 C 294.300781 419.875 296.101562 422.121094 296.792969 422.308594 C 297.351562 422.121094 299.152344 419.867188 299.152344 415.921875 C 299.152344 413.964844 300.96875 412.371094 303.222656 412.371094 C 305.476562 412.371094 307.289062 414 307.289062 415.921875 C 307.183594 423.601562 302.675781 429.398438 296.675781 429.398438 Z M 296.675781 429.398438 " fill-opacity="1" fill-rule="nonzero"/><path fill="#ea392c" d="M 186.523438 496.152344 C 180.535156 496.152344 176.015625 490.359375 176.015625 482.675781 C 176.015625 480.722656 177.824219 479.136719 180.085938 479.136719 C 182.347656 479.136719 184.15625 480.722656 184.15625 482.675781 C 184.15625 486.632812 185.964844 488.878906 186.648438 489.074219 C 187.207031 488.878906 189.015625 486.632812 189.015625 482.675781 C 189.015625 480.722656 190.820312 479.136719 193.085938 479.136719 C 195.347656 479.136719 197.15625 480.722656 197.15625 482.675781 C 197.039062 490.359375 192.523438 496.152344 186.523438 496.152344 Z M 186.523438 496.152344 " fill-opacity="1" fill-rule="nonzero"/><path fill="#ea392c" d="M 241.601562 496.152344 C 235.609375 496.152344 231.085938 490.359375 231.085938 482.675781 C 231.085938 480.722656 232.902344 479.136719 235.15625 479.136719 C 237.410156 479.136719 239.226562 480.722656 239.226562 482.675781 C 239.226562 486.632812 241.03125 488.878906 241.714844 489.074219 C 242.277344 488.878906 244.074219 486.632812 244.074219 482.675781 C 244.074219 480.722656 245.890625 479.136719 248.144531 479.136719 C 250.398438 479.136719 252.214844 480.722656 252.214844 482.675781 C 252.117188 490.359375 247.601562 496.152344 241.601562 496.152344 Z M 241.601562 496.152344 " fill-opacity="1" fill-rule="nonzero"/><path fill="#ea392c" d="M 296.675781 496.152344 C 290.6875 496.152344 286.164062 490.359375 286.164062 482.675781 C 286.164062 480.722656 287.976562 479.136719 290.230469 479.136719 C 292.484375 479.136719 294.300781 480.722656 294.300781 482.675781 C 294.300781 486.632812 296.101562 488.878906 296.792969 489.074219 C 297.351562 488.878906 299.152344 486.632812 299.152344 482.675781 C 299.152344 480.722656 300.96875 479.136719 303.222656 479.136719 C 305.476562 479.136719 307.289062 480.722656 307.289062 482.675781 C 307.183594 490.359375 302.675781 496.152344 296.675781 496.152344 Z M 296.675781 496.152344 " fill-opacity="1" fill-rule="nonzero"/><path fill="#ea392c" d="M 214.5625 462.777344 C 208.574219 462.777344 204.054688 456.980469 204.054688 449.296875 C 204.054688 447.34375 205.863281 445.757812 208.125 445.757812 C 210.386719 445.757812 212.195312 447.34375 212.195312 449.296875 C 212.195312 453.253906 214.003906 455.5 214.6875 455.695312 C 215.246094 455.5 217.054688 453.253906 217.054688 449.296875 C 217.054688 447.34375 218.859375 445.757812 221.125 445.757812 C 223.386719 445.757812 225.191406 447.34375 225.191406 449.296875 C 225.078125 456.980469 220.5625 462.777344 214.5625 462.777344 Z M 214.5625 462.777344 " fill-opacity="1" fill-rule="nonzero"/><path fill="#ea392c" d="M 268.640625 462.777344 C 262.648438 462.777344 258.125 456.980469 258.125 449.296875 C 258.125 447.34375 259.9375 445.757812 262.191406 445.757812 C 264.449219 445.757812 266.261719 447.34375 266.261719 449.296875 C 266.261719 453.253906 268.070312 455.5 268.753906 455.695312 C 269.316406 455.5 271.113281 453.253906 271.113281 449.296875 C 271.113281 447.34375 272.929688 445.757812 275.183594 445.757812 C 277.4375 445.757812 279.253906 447.34375 279.253906 449.296875 C 279.15625 456.980469 274.628906 462.777344 268.640625 462.777344 Z M 268.640625 462.777344 " fill-opacity="1" fill-rule="nonzero"/><g fill="#0077b6" fill-opacity="1"><g transform="translate(567.208894, 468.414884)"><g><path d="M 178.921875 -321.328125 C 227.003906 -321.328125 264.960938 -306.492188 292.796875 -276.828125 C 320.640625 -247.160156 334.5625 -207.375 334.5625 -157.46875 C 334.5625 -107.875 320.640625 -68.164062 292.796875 -38.34375 C 264.960938 -8.519531 227.003906 6.390625 178.921875 6.390625 C 130.847656 6.390625 92.890625 -8.519531 65.046875 -38.34375 C 37.203125 -68.164062 23.28125 -107.875 23.28125 -157.46875 C 23.28125 -207.375 37.125 -247.160156 64.8125 -276.828125 C 92.5 -306.492188 130.535156 -321.328125 178.921875 -321.328125 Z M 112.96875 -71.421875 C 128.945312 -50.890625 150.929688 -40.625 178.921875 -40.625 C 206.921875 -40.625 228.832031 -50.96875 244.65625 -71.65625 C 260.476562 -92.351562 268.390625 -120.957031 268.390625 -157.46875 C 268.390625 -194.289062 260.476562 -222.96875 244.65625 -243.5 C 228.832031 -264.039062 206.921875 -274.3125 178.921875 -274.3125 C 150.617188 -274.3125 128.554688 -264.039062 112.734375 -243.5 C 96.910156 -222.96875 89 -194.289062 89 -157.46875 C 89 -120.644531 96.988281 -91.960938 112.96875 -71.421875 Z M 112.96875 -71.421875 "/></g></g></g><g fill="#0077b6" fill-opacity="1"><g transform="translate(898.125616, 468.414884)"><g><path d="M 452.328125 -314.9375 L 368.796875 0 L 285.28125 0 L 231.40625 -262 L 174.8125 0 L 90.828125 0 L 11.875 -314.9375 L 79.875 -314.9375 L 132.828125 -48.375 L 188.515625 -310.375 L 277.0625 -310.375 L 330.921875 -47.46875 L 387.515625 -314.9375 Z M 452.328125 -314.9375 "/></g></g></g><g fill="#0077b6" fill-opacity="1"><g transform="translate(1330.371354, 468.414884)"><g><path d="M 267.921875 -52.484375 L 267.921875 0 L 40.625 0 L 40.625 -314.9375 L 103.609375 -314.9375 L 103.609375 -52.484375 Z M 267.921875 -52.484375 "/></g></g></g><g fill="#0077b6" fill-opacity="1"><g transform="translate(1587.801664, 468.414884)"><g/></g></g><g fill="#0077b6" fill-opacity="1"><g transform="translate(1658.092857, 468.414884)"><g><path d="M 287.09375 -265.640625 L 180.296875 -265.640625 L 180.296875 0 L 117.296875 0 L 117.296875 -265.640625 L 10.5 -265.640625 L 10.5 -314.9375 L 287.09375 -314.9375 Z M 287.09375 -265.640625 "/></g></g></g><g fill="#0077b6" fill-opacity="1"><g transform="translate(1924.195555, 468.414884)"><g><path d="M 267.921875 -49.75 L 267.921875 0 L 40.625 0 L 40.625 -314.9375 L 263.359375 -314.9375 L 263.359375 -265.640625 L 103.609375 -265.640625 L 103.609375 -182.578125 L 251.953125 -182.578125 L 251.953125 -132.828125 L 103.609375 -132.828125 L 103.609375 -49.75 Z M 267.921875 -49.75 "/></g></g></g><g fill="#0077b6" fill-opacity="1"><g transform="translate(2187.103225, 468.414884)"><g><path d="M 145.140625 -321.328125 C 181.046875 -321.328125 208.507812 -312.347656 227.53125 -294.390625 C 246.550781 -276.441406 257.882812 -252.40625 261.53125 -222.28125 L 197.1875 -222.28125 C 195.351562 -238.71875 189.875 -251.5 180.75 -260.625 C 171.625 -269.75 158.992188 -274.3125 142.859375 -274.3125 C 129.773438 -274.3125 119.125 -271.117188 110.90625 -264.734375 C 102.695312 -258.347656 98.59375 -249.066406 98.59375 -236.890625 C 98.59375 -223.503906 103.535156 -213.003906 113.421875 -205.390625 C 123.316406 -197.785156 140.738281 -191.09375 165.6875 -185.3125 C 200.070312 -177.40625 225.40625 -165.382812 241.6875 -149.25 C 257.96875 -133.125 266.109375 -112.28125 266.109375 -86.71875 C 266.109375 -58.113281 254.847656 -35.441406 232.328125 -18.703125 C 209.804688 -1.972656 182.269531 6.390625 149.71875 6.390625 C 111.375 6.390625 80.789062 -2.050781 57.96875 -18.9375 C 35.144531 -35.832031 22.210938 -60.554688 19.171875 -93.109375 L 83.53125 -93.109375 C 86.875 -76.378906 94.476562 -63.445312 106.34375 -54.3125 C 118.21875 -45.1875 132.367188 -40.625 148.796875 -40.625 C 163.398438 -40.625 175.644531 -44.273438 185.53125 -51.578125 C 195.425781 -58.878906 200.375 -68.460938 200.375 -80.328125 C 200.375 -93.722656 195.582031 -104.523438 186 -112.734375 C 176.414062 -120.953125 160.210938 -127.800781 137.390625 -133.28125 C 102.085938 -141.800781 75.765625 -153.132812 58.421875 -167.28125 C 41.078125 -181.4375 32.40625 -202.050781 32.40625 -229.125 C 32.40625 -257.125 43.359375 -279.488281 65.265625 -296.21875 C 87.179688 -312.957031 113.804688 -321.328125 145.140625 -321.328125 Z M 145.140625 -321.328125 "/></g></g></g><g fill="#0077b6" fill-opacity="1"><g transform="translate(2446.359324, 468.414884)"><g><path d="M 287.09375 -265.640625 L 180.296875 -265.640625 L 180.296875 0 L 117.296875 0 L 117.296875 -265.640625 L 10.5 -265.640625 L 10.5 -314.9375 L 287.09375 -314.9375 Z M 287.09375 -265.640625 "/></g></g></g></svg>