<svg xmlns="http://www.w3.org/2000/svg" xmlns:xlink="http://www.w3.org/1999/xlink" width="2100" zoomAndPan="magnify" viewBox="0 0 1574.88 525.000007" height="700" preserveAspectRatio="xMidYMid meet" version="1.0"><defs><g/><clipPath id="cd91e6ebbc"><path d="M 222 157 L 360.753906 157 L 360.753906 191 L 222 191 Z M 222 157 " clip-rule="nonzero"/></clipPath><clipPath id="9fee138961"><path d="M 55 71.378906 L 360 71.378906 L 360 139 L 55 139 Z M 55 71.378906 " clip-rule="nonzero"/></clipPath><clipPath id="b721d0f301"><path d="M 159 413 L 199 413 L 199 452.402344 L 159 452.402344 Z M 159 413 " clip-rule="nonzero"/></clipPath><clipPath id="b9385473e5"><path d="M 216 413 L 255 413 L 255 452.402344 L 216 452.402344 Z M 216 413 " clip-rule="nonzero"/></clipPath></defs><path fill="#ea392c" d="M 335.371094 191.523438 C 280.664062 186.308594 223.507812 181.046875 214.140625 214.3125 C 210.800781 213.984375 206.152344 213.945312 199.804688 213.996094 C 190.125 186.417969 158.808594 183.800781 79.25 191.203125 C 72.636719 191.816406 74.796875 200.03125 79.25 199.621094 C 79.988281 199.621094 83.835938 199.222656 89.664062 198.699219 C 82.496094 253.316406 125.082031 289.484375 163.738281 278.578125 C 191.863281 270.644531 204.679688 244.269531 201.808594 222.460938 C 206.191406 222.542969 209.75 222.78125 212.574219 222.925781 C 208.125 266.460938 257.042969 297.15625 294.945312 271.390625 C 319.6875 254.578125 328.804688 228.085938 324.953125 199 C 328.292969 199.285156 331.75 199.589844 335.34375 199.9375 C 340.210938 200.398438 341.582031 192.117188 335.371094 191.523438 Z M 172.675781 265.71875 C 146.980469 280.890625 118.542969 267.945312 104.65625 242.984375 C 94.082031 223.914062 97.515625 207.328125 98.316406 197.964844 C 121.519531 196.128906 159.539062 194.230469 176.632812 200.878906 C 203.925781 211.492188 196.339844 251.746094 172.675781 265.71875 Z M 237.238281 262.765625 C 217.277344 246.292969 212.609375 211.714844 237.460938 201.140625 C 236.558594 201.523438 246.0625 193.058594 316.398438 198.316406 C 325.722656 257.882812 269.644531 289.496094 237.257812 262.765625 Z M 237.238281 262.765625 " fill-opacity="1" fill-rule="nonzero"/><path fill="#023e8a" d="M 151.5625 209.335938 C 149.347656 209.335938 147.179688 209.65625 145.0625 210.304688 C 145.660156 210.78125 146.207031 211.316406 146.699219 211.902344 C 147.1875 212.492188 147.617188 213.125 147.976562 213.800781 C 148.339844 214.476562 148.628906 215.179688 148.847656 215.914062 C 149.066406 216.648438 149.210938 217.398438 149.273438 218.160156 C 149.339844 218.925781 149.328125 219.6875 149.238281 220.449219 C 149.148438 221.210938 148.984375 221.953125 148.742188 222.683594 C 148.5 223.410156 148.1875 224.105469 147.804688 224.769531 C 147.421875 225.433594 146.976562 226.050781 146.464844 226.621094 C 145.957031 227.195312 145.394531 227.710938 144.78125 228.167969 C 144.164062 228.625 143.511719 229.019531 142.816406 229.34375 C 142.121094 229.667969 141.402344 229.917969 140.65625 230.097656 C 139.910156 230.273438 139.15625 230.375 138.390625 230.398438 C 137.625 230.421875 136.863281 230.367188 136.109375 230.238281 C 135.351562 230.105469 134.617188 229.898438 133.90625 229.617188 C 133.191406 229.335938 132.515625 228.988281 131.875 228.570312 C 131.230469 228.148438 130.640625 227.667969 130.097656 227.128906 C 129.835938 228.441406 129.703125 229.769531 129.699219 231.109375 C 129.699219 231.824219 129.734375 232.535156 129.804688 233.25 C 129.871094 233.960938 129.976562 234.664062 130.113281 235.367188 C 130.253906 236.066406 130.425781 236.761719 130.632812 237.445312 C 130.839844 238.128906 131.078125 238.800781 131.351562 239.460938 C 131.625 240.125 131.929688 240.769531 132.265625 241.398438 C 132.601562 242.03125 132.96875 242.644531 133.363281 243.238281 C 133.757812 243.832031 134.183594 244.40625 134.636719 244.960938 C 135.089844 245.511719 135.570312 246.042969 136.074219 246.546875 C 136.578125 247.054688 137.105469 247.535156 137.660156 247.988281 C 138.210938 248.441406 138.78125 248.867188 139.375 249.265625 C 139.972656 249.664062 140.582031 250.03125 141.210938 250.371094 C 141.84375 250.707031 142.488281 251.011719 143.148438 251.289062 C 143.808594 251.5625 144.480469 251.804688 145.164062 252.011719 C 145.847656 252.21875 146.539062 252.394531 147.238281 252.535156 C 147.941406 252.675781 148.648438 252.78125 149.359375 252.851562 C 150.070312 252.921875 150.78125 252.957031 151.496094 252.957031 C 152.210938 252.960938 152.925781 252.925781 153.636719 252.855469 C 154.347656 252.789062 155.054688 252.683594 155.753906 252.542969 C 156.457031 252.40625 157.148438 252.234375 157.832031 252.027344 C 158.515625 251.820312 159.191406 251.582031 159.851562 251.308594 C 160.511719 251.035156 161.15625 250.730469 161.789062 250.394531 C 162.417969 250.058594 163.03125 249.691406 163.625 249.296875 C 164.21875 248.898438 164.792969 248.472656 165.347656 248.019531 C 165.898438 247.570312 166.429688 247.089844 166.9375 246.585938 C 167.441406 246.082031 167.921875 245.550781 168.375 245 C 168.828125 244.449219 169.253906 243.875 169.652344 243.28125 C 170.050781 242.6875 170.417969 242.074219 170.757812 241.445312 C 171.09375 240.816406 171.398438 240.171875 171.675781 239.511719 C 171.949219 238.851562 172.191406 238.179688 172.398438 237.496094 C 172.605469 236.8125 172.78125 236.117188 172.921875 235.417969 C 173.0625 234.71875 173.167969 234.011719 173.238281 233.300781 C 173.308594 232.589844 173.34375 231.875 173.34375 231.160156 C 173.347656 230.445312 173.3125 229.734375 173.242188 229.023438 C 173.171875 228.308594 173.070312 227.605469 172.929688 226.902344 C 172.792969 226.203125 172.617188 225.507812 172.414062 224.824219 C 172.207031 224.140625 171.964844 223.46875 171.691406 222.808594 C 171.421875 222.148438 171.117188 221.5 170.78125 220.871094 C 170.441406 220.238281 170.078125 219.628906 169.679688 219.03125 C 169.285156 218.4375 168.859375 217.863281 168.40625 217.3125 C 167.953125 216.757812 167.476562 216.226562 166.96875 215.722656 C 166.464844 215.214844 165.9375 214.738281 165.382812 214.28125 C 164.832031 213.828125 164.257812 213.402344 163.664062 213.003906 C 163.070312 212.605469 162.460938 212.238281 161.828125 211.902344 C 161.199219 211.5625 160.554688 211.257812 159.894531 210.984375 C 159.234375 210.710938 158.5625 210.46875 157.878906 210.261719 C 157.195312 210.050781 156.503906 209.878906 155.800781 209.738281 C 155.101562 209.597656 154.394531 209.492188 153.683594 209.421875 C 152.972656 209.351562 152.261719 209.316406 151.546875 209.316406 Z M 153.03125 240.9375 C 152.585938 240.9375 152.144531 240.894531 151.710938 240.804688 C 151.273438 240.71875 150.851562 240.589844 150.4375 240.417969 C 150.027344 240.25 149.636719 240.039062 149.269531 239.792969 C 148.898438 239.546875 148.558594 239.265625 148.242188 238.949219 C 147.929688 238.632812 147.648438 238.292969 147.402344 237.921875 C 147.15625 237.550781 146.945312 237.160156 146.777344 236.75 C 146.605469 236.339844 146.480469 235.914062 146.390625 235.480469 C 146.304688 235.042969 146.261719 234.601562 146.261719 234.15625 C 146.265625 233.710938 146.308594 233.273438 146.394531 232.835938 C 146.480469 232.398438 146.613281 231.976562 146.78125 231.566406 C 146.953125 231.152344 147.160156 230.765625 147.410156 230.394531 C 147.65625 230.023438 147.9375 229.683594 148.253906 229.367188 C 148.566406 229.054688 148.910156 228.773438 149.28125 228.527344 C 149.652344 228.28125 150.042969 228.074219 150.453125 227.902344 C 150.863281 227.734375 151.289062 227.605469 151.722656 227.519531 C 152.160156 227.433594 152.601562 227.390625 153.046875 227.390625 C 153.492188 227.390625 153.929688 227.4375 154.367188 227.523438 C 154.804688 227.609375 155.226562 227.738281 155.636719 227.910156 C 156.046875 228.082031 156.4375 228.289062 156.808594 228.539062 C 157.175781 228.785156 157.519531 229.066406 157.832031 229.382812 C 158.148438 229.695312 158.425781 230.039062 158.675781 230.410156 C 158.921875 230.78125 159.128906 231.171875 159.296875 231.582031 C 159.46875 231.992188 159.597656 232.417969 159.683594 232.855469 C 159.769531 233.289062 159.8125 233.730469 159.808594 234.175781 C 159.808594 234.621094 159.765625 235.058594 159.679688 235.496094 C 159.589844 235.933594 159.460938 236.355469 159.292969 236.765625 C 159.121094 237.175781 158.914062 237.566406 158.664062 237.9375 C 158.417969 238.304688 158.136719 238.648438 157.820312 238.960938 C 157.507812 239.273438 157.164062 239.554688 156.792969 239.800781 C 156.425781 240.046875 156.035156 240.257812 155.625 240.425781 C 155.210938 240.59375 154.789062 240.722656 154.351562 240.808594 C 153.917969 240.894531 153.476562 240.9375 153.03125 240.9375 Z M 153.03125 240.9375 " fill-opacity="1" fill-rule="nonzero"/><path fill="#023e8a" d="M 241.238281 231.179688 C 241.25 231.886719 241.296875 232.59375 241.378906 233.296875 C 241.457031 234 241.574219 234.695312 241.722656 235.386719 C 241.871094 236.078125 242.050781 236.761719 242.265625 237.4375 C 242.480469 238.109375 242.726562 238.773438 243.007812 239.421875 C 243.285156 240.074219 243.597656 240.707031 243.9375 241.328125 C 244.277344 241.949219 244.648438 242.550781 245.046875 243.132812 C 245.449219 243.71875 245.875 244.28125 246.328125 244.824219 C 246.785156 245.363281 247.261719 245.882812 247.769531 246.378906 C 248.273438 246.875 248.800781 247.34375 249.351562 247.789062 C 249.902344 248.234375 250.472656 248.648438 251.0625 249.039062 C 251.652344 249.429688 252.261719 249.789062 252.886719 250.117188 C 253.515625 250.445312 254.15625 250.746094 254.808594 251.011719 C 255.464844 251.28125 256.132812 251.515625 256.808594 251.71875 C 257.488281 251.921875 258.171875 252.089844 258.867188 252.226562 C 259.5625 252.359375 260.261719 252.460938 260.964844 252.53125 C 261.667969 252.597656 262.375 252.632812 263.082031 252.632812 C 263.789062 252.628906 264.496094 252.59375 265.199219 252.527344 C 265.902344 252.457031 266.601562 252.351562 267.296875 252.214844 C 267.992188 252.078125 268.675781 251.90625 269.355469 251.703125 C 270.03125 251.5 270.695312 251.261719 271.351562 250.992188 C 272.003906 250.726562 272.644531 250.425781 273.269531 250.09375 C 273.894531 249.761719 274.503906 249.402344 275.09375 249.011719 C 275.683594 248.621094 276.253906 248.203125 276.804688 247.757812 C 277.351562 247.3125 277.878906 246.839844 278.382812 246.34375 C 278.886719 245.847656 279.363281 245.328125 279.816406 244.785156 C 280.269531 244.242188 280.695312 243.675781 281.09375 243.09375 C 281.492188 242.507812 281.863281 241.90625 282.199219 241.285156 C 282.539062 240.664062 282.847656 240.027344 283.128906 239.375 C 283.40625 238.726562 283.652344 238.0625 283.863281 237.390625 C 284.078125 236.714844 284.257812 236.03125 284.402344 235.339844 C 284.550781 234.648438 284.664062 233.949219 284.742188 233.246094 C 284.820312 232.542969 284.867188 231.839844 284.878906 231.132812 C 284.878906 229.785156 284.75 228.449219 284.492188 227.128906 C 283.445312 228.175781 282.238281 228.980469 280.871094 229.546875 C 279.5 230.109375 278.074219 230.390625 276.59375 230.386719 C 275.425781 230.386719 274.285156 230.210938 273.171875 229.859375 C 272.054688 229.503906 271.023438 228.992188 270.066406 228.316406 C 269.113281 227.640625 268.285156 226.835938 267.578125 225.90625 C 266.875 224.972656 266.328125 223.953125 265.941406 222.851562 C 265.550781 221.75 265.339844 220.613281 265.304688 219.445312 C 265.273438 218.277344 265.414062 217.128906 265.738281 216.003906 C 266.058594 214.882812 266.542969 213.832031 267.191406 212.859375 C 267.839844 211.886719 268.621094 211.035156 269.53125 210.304688 C 267.414062 209.65625 265.242188 209.335938 263.027344 209.335938 C 262.3125 209.335938 261.601562 209.375 260.890625 209.445312 C 260.179688 209.515625 259.472656 209.621094 258.769531 209.761719 C 258.070312 209.902344 257.378906 210.074219 256.695312 210.285156 C 256.011719 210.492188 255.339844 210.734375 254.679688 211.007812 C 254.019531 211.28125 253.375 211.589844 252.746094 211.925781 C 252.117188 212.261719 251.503906 212.632812 250.910156 213.027344 C 250.316406 213.425781 249.746094 213.851562 249.191406 214.304688 C 248.640625 214.761719 248.113281 215.242188 247.609375 215.746094 C 247.105469 216.253906 246.625 216.78125 246.171875 217.335938 C 245.71875 217.886719 245.296875 218.460938 244.898438 219.054688 C 244.503906 219.652344 244.136719 220.261719 243.800781 220.894531 C 243.464844 221.523438 243.160156 222.167969 242.886719 222.832031 C 242.617188 223.492188 242.375 224.164062 242.167969 224.847656 C 241.964844 225.53125 241.789062 226.222656 241.652344 226.925781 C 241.511719 227.625 241.410156 228.332031 241.339844 229.042969 C 241.269531 229.753906 241.238281 230.464844 241.238281 231.179688 Z M 254.785156 234.175781 C 254.785156 233.730469 254.828125 233.289062 254.914062 232.855469 C 255 232.417969 255.125 231.992188 255.296875 231.582031 C 255.464844 231.171875 255.671875 230.78125 255.921875 230.410156 C 256.167969 230.039062 256.445312 229.695312 256.761719 229.382812 C 257.074219 229.066406 257.417969 228.785156 257.785156 228.539062 C 258.15625 228.289062 258.546875 228.082031 258.957031 227.910156 C 259.367188 227.738281 259.789062 227.609375 260.226562 227.523438 C 260.664062 227.4375 261.105469 227.390625 261.546875 227.390625 C 261.992188 227.390625 262.433594 227.433594 262.871094 227.519531 C 263.304688 227.605469 263.730469 227.734375 264.140625 227.902344 C 264.554688 228.074219 264.945312 228.28125 265.3125 228.527344 C 265.683594 228.773438 266.027344 229.054688 266.339844 229.367188 C 266.65625 229.683594 266.9375 230.023438 267.183594 230.394531 C 267.433594 230.765625 267.640625 231.152344 267.8125 231.566406 C 267.984375 231.976562 268.113281 232.398438 268.199219 232.835938 C 268.285156 233.273438 268.332031 233.710938 268.332031 234.15625 C 268.332031 234.601562 268.289062 235.042969 268.203125 235.480469 C 268.117188 235.914062 267.988281 236.339844 267.816406 236.75 C 267.648438 237.160156 267.441406 237.550781 267.191406 237.921875 C 266.945312 238.292969 266.664062 238.632812 266.351562 238.949219 C 266.039062 239.265625 265.695312 239.546875 265.324219 239.792969 C 264.957031 240.039062 264.566406 240.25 264.15625 240.417969 C 263.746094 240.589844 263.320312 240.71875 262.886719 240.804688 C 262.449219 240.894531 262.007812 240.9375 261.5625 240.9375 C 261.117188 240.9375 260.679688 240.894531 260.242188 240.808594 C 259.804688 240.726562 259.382812 240.597656 258.96875 240.425781 C 258.558594 240.257812 258.167969 240.050781 257.796875 239.804688 C 257.429688 239.558594 257.085938 239.277344 256.769531 238.960938 C 256.457031 238.648438 256.175781 238.308594 255.925781 237.9375 C 255.679688 237.566406 255.472656 237.179688 255.300781 236.765625 C 255.128906 236.355469 255 235.933594 254.914062 235.496094 C 254.828125 235.0625 254.785156 234.621094 254.785156 234.175781 Z M 254.785156 234.175781 " fill-opacity="1" fill-rule="nonzero"/><path fill="#023e8a" d="M 192.496094 190.480469 C 181.855469 183.464844 170.117188 181.382812 158.425781 181.019531 C 146.730469 180.65625 134.914062 182.574219 122.433594 183.757812 C 119.304688 184.035156 116.15625 184.3125 112.972656 184.476562 C 109.789062 184.636719 106.542969 184.691406 103.285156 184.609375 C 99.984375 184.515625 96.699219 184.25 93.425781 183.8125 C 90.117188 183.335938 86.855469 182.632812 83.644531 181.703125 C 80.4375 180.746094 77.324219 179.542969 74.308594 178.09375 C 71.296875 176.617188 68.453125 174.867188 65.78125 172.84375 C 63.140625 170.808594 60.785156 168.488281 58.714844 165.875 C 56.722656 163.292969 55.15625 160.472656 54.011719 157.417969 C 56.226562 159.574219 58.609375 161.523438 61.167969 163.265625 C 63.679688 164.855469 66.300781 166.234375 69.035156 167.402344 C 74.441406 169.597656 80.035156 171.058594 85.824219 171.785156 C 97.25 173.363281 108.957031 172.054688 121.222656 170.914062 L 130.519531 170.101562 C 133.664062 169.898438 136.828125 169.675781 140.035156 169.609375 C 146.585938 169.386719 153.089844 169.835938 159.546875 170.960938 C 162.804688 171.566406 166 172.390625 169.144531 173.433594 C 172.289062 174.5 175.320312 175.824219 178.238281 177.40625 C 181.128906 179.015625 183.8125 180.914062 186.289062 183.105469 C 188.691406 185.285156 190.761719 187.742188 192.496094 190.480469 Z M 192.496094 190.480469 " fill-opacity="1" fill-rule="nonzero"/><path fill="#023e8a" d="M 188.195312 181.578125 C 183.980469 179.808594 179.683594 178.273438 175.304688 176.972656 C 171.15625 175.78125 166.941406 174.90625 162.660156 174.339844 C 158.523438 173.8125 154.375 173.628906 150.210938 173.785156 C 148.160156 173.894531 146.140625 173.992188 144.054688 174.289062 C 141.96875 174.589844 139.847656 174.847656 137.6875 175.203125 L 131.007812 176.273438 C 128.730469 176.585938 126.421875 176.953125 124.035156 177.179688 C 121.648438 177.40625 119.214844 177.589844 116.734375 177.570312 C 114.1875 177.601562 111.660156 177.414062 109.148438 177.011719 C 104.015625 176.25 99.265625 174.464844 94.898438 171.660156 C 90.648438 168.84375 87.160156 164.667969 85.945312 160.015625 C 89.332031 162.933594 93.203125 164.890625 97.558594 165.886719 C 101.59375 166.804688 105.675781 167.128906 109.804688 166.867188 C 117.851562 166.453125 126.265625 163.9375 135.621094 162.453125 C 140.304688 161.753906 145.289062 161.222656 150.371094 161.566406 C 155.398438 161.878906 160.292969 162.863281 165.046875 164.523438 C 174.40625 167.8125 182.828125 173.632812 188.195312 181.578125 Z M 188.195312 181.578125 " fill-opacity="1" fill-rule="nonzero"/><g clip-path="url(#cd91e6ebbc)"><path fill="#023e8a" d="M 222.085938 190.480469 C 232.730469 183.464844 244.464844 181.382812 256.152344 181.019531 C 267.839844 180.65625 279.664062 182.574219 292.152344 183.757812 C 295.273438 184.035156 298.429688 184.3125 301.613281 184.476562 C 304.796875 184.636719 308.046875 184.691406 311.300781 184.609375 C 314.597656 184.523438 317.882812 184.261719 321.152344 183.832031 C 324.460938 183.351562 327.71875 182.648438 330.929688 181.722656 C 334.140625 180.765625 337.257812 179.5625 340.277344 178.109375 C 343.285156 176.632812 346.128906 174.882812 348.800781 172.859375 C 351.4375 170.820312 353.789062 168.492188 355.855469 165.875 C 357.847656 163.292969 359.417969 160.472656 360.5625 157.417969 C 358.355469 159.574219 355.980469 161.523438 353.433594 163.265625 C 350.929688 164.855469 348.3125 166.234375 345.585938 167.402344 C 340.183594 169.597656 334.585938 171.058594 328.800781 171.785156 C 317.378906 173.363281 305.664062 172.054688 293.402344 170.914062 L 284.105469 170.101562 C 280.964844 169.898438 277.792969 169.675781 274.59375 169.609375 C 268.039062 169.386719 261.535156 169.835938 255.074219 170.960938 C 251.8125 171.566406 248.609375 172.390625 245.460938 173.433594 C 242.320312 174.5 239.289062 175.824219 236.367188 177.40625 C 233.480469 179.019531 230.792969 180.917969 228.316406 183.105469 C 225.90625 185.285156 223.828125 187.742188 222.085938 190.480469 Z M 222.085938 190.480469 " fill-opacity="1" fill-rule="nonzero"/></g><path fill="#023e8a" d="M 226.402344 181.578125 C 230.613281 179.808594 234.910156 178.273438 239.289062 176.972656 C 243.4375 175.78125 247.652344 174.90625 251.929688 174.339844 C 256.066406 173.8125 260.21875 173.625 264.386719 173.785156 C 266.433594 173.894531 268.460938 173.992188 270.546875 174.289062 C 272.632812 174.589844 274.753906 174.847656 276.914062 175.203125 L 283.5625 176.273438 C 285.839844 176.585938 288.15625 176.953125 290.542969 177.179688 C 292.929688 177.40625 295.363281 177.589844 297.84375 177.570312 C 300.386719 177.601562 302.914062 177.414062 305.425781 177.011719 C 310.558594 176.25 315.3125 174.464844 319.679688 171.660156 C 323.925781 168.84375 327.417969 164.667969 328.632812 160.015625 C 325.246094 162.933594 321.375 164.890625 317.019531 165.886719 C 312.984375 166.804688 308.902344 167.128906 304.773438 166.867188 C 296.730469 166.453125 288.3125 163.9375 278.960938 162.453125 C 274.273438 161.753906 269.289062 161.222656 264.210938 161.566406 C 259.183594 161.878906 254.292969 162.863281 249.535156 164.523438 C 240.179688 167.8125 231.765625 173.632812 226.402344 181.578125 Z M 226.402344 181.578125 " fill-opacity="1" fill-rule="nonzero"/><path fill="#0077b6" d="M 207.1875 186.773438 C 207.222656 186.714844 207.261719 186.664062 207.304688 186.613281 C 207.339844 186.664062 207.367188 186.722656 207.398438 186.773438 Z M 207.1875 186.773438 " fill-opacity="1" fill-rule="nonzero"/><path fill="#0077b6" d="M 288.917969 102.730469 L 288.917969 153.140625 C 273.078125 152.300781 257.15625 152.328125 242.046875 156.828125 C 228.132812 160.960938 214.875 169.703125 207.3125 181.765625 C 199.730469 169.703125 186.46875 160.984375 172.554688 156.828125 C 157.4375 152.328125 141.503906 152.300781 125.664062 153.140625 L 125.664062 102.730469 Z M 288.917969 102.730469 " fill-opacity="1" fill-rule="nonzero"/><path fill="#023e8a" d="M 132.757812 307.574219 C 147.464844 327.675781 151.617188 354.148438 148.128906 378.8125 C 145.945312 394.195312 141.046875 409.003906 134.664062 423.207031 C 132.703125 422.136719 130.769531 421.019531 128.863281 419.851562 C 126.957031 418.6875 125.078125 417.472656 123.230469 416.214844 C 121.386719 414.957031 119.570312 413.652344 117.789062 412.300781 C 116.007812 410.953125 114.261719 409.5625 112.546875 408.125 C 110.835938 406.6875 109.160156 405.210938 107.519531 403.691406 C 105.882812 402.171875 104.28125 400.613281 102.71875 399.015625 C 101.15625 397.417969 99.636719 395.78125 98.15625 394.105469 C 96.675781 392.433594 95.238281 390.722656 93.839844 388.976562 C 92.445312 387.230469 91.09375 385.453125 89.785156 383.640625 C 88.476562 381.828125 87.214844 379.984375 86 378.109375 C 84.785156 376.234375 83.617188 374.328125 82.496094 372.394531 C 81.375 370.460938 80.300781 368.5 79.277344 366.515625 C 78.253906 364.527344 77.277344 362.519531 76.355469 360.484375 C 75.429688 358.449219 74.558594 356.390625 73.734375 354.3125 C 72.914062 352.234375 72.140625 350.136719 71.425781 348.023438 C 70.707031 345.90625 70.042969 343.773438 69.429688 341.621094 C 68.816406 339.472656 68.257812 337.308594 67.753906 335.132812 C 67.25 332.957031 66.796875 330.765625 66.402344 328.566406 C 66.007812 326.367188 65.664062 324.160156 65.378906 321.945312 C 65.09375 319.726562 64.859375 317.503906 64.683594 315.277344 C 64.507812 313.046875 64.386719 310.816406 64.320312 308.582031 C 64.257812 306.351562 64.246094 304.117188 64.292969 301.882812 C 64.335938 299.648438 64.4375 297.414062 64.59375 295.183594 C 64.75 292.957031 64.960938 290.730469 65.230469 288.511719 C 65.496094 286.292969 65.816406 284.082031 66.195312 281.878906 C 66.570312 279.675781 67 277.484375 67.484375 275.300781 C 67.972656 273.121094 68.511719 270.953125 69.101562 268.796875 C 69.695312 266.644531 70.34375 264.503906 71.042969 262.382812 C 71.742188 260.257812 72.492188 258.15625 73.296875 256.070312 C 74.097656 253.984375 74.953125 251.917969 75.859375 249.875 C 76.765625 247.832031 77.722656 245.8125 78.726562 243.816406 C 79.734375 241.824219 80.789062 239.851562 81.894531 237.910156 C 82.617188 251.363281 90.621094 263.945312 99.992188 273.964844 C 110.695312 285.410156 123.527344 294.933594 132.757812 307.574219 Z M 132.757812 307.574219 " fill-opacity="1" fill-rule="nonzero"/><path fill="#023e8a" d="M 350.332031 304.953125 C 350.339844 307.980469 350.242188 311.007812 350.042969 314.027344 C 349.84375 317.050781 349.542969 320.0625 349.140625 323.066406 C 348.738281 326.066406 348.234375 329.050781 347.628906 332.019531 C 347.023438 334.988281 346.320312 337.933594 345.515625 340.851562 C 344.710938 343.773438 343.808594 346.664062 342.808594 349.523438 C 341.808594 352.382812 340.714844 355.203125 339.523438 357.988281 C 338.332031 360.773438 337.050781 363.515625 335.675781 366.214844 C 334.296875 368.914062 332.832031 371.5625 331.277344 374.160156 C 329.722656 376.761719 328.082031 379.304688 326.355469 381.792969 C 324.628906 384.28125 322.816406 386.707031 320.925781 389.074219 C 319.035156 391.441406 317.066406 393.738281 315.019531 395.972656 C 312.972656 398.203125 310.851562 400.367188 308.660156 402.453125 C 306.464844 404.542969 304.203125 406.554688 301.875 408.492188 C 299.546875 410.429688 297.152344 412.285156 294.699219 414.058594 C 292.242188 415.832031 289.730469 417.523438 287.160156 419.125 C 284.59375 420.730469 281.972656 422.246094 279.300781 423.675781 C 272.800781 409.335938 267.808594 394.371094 265.609375 378.820312 C 262.136719 354.15625 266.273438 327.679688 280.980469 307.585938 C 290.226562 294.945312 303.058594 285.421875 313.738281 273.996094 C 323.421875 263.640625 331.667969 250.5 331.921875 236.550781 L 332.601562 237.730469 C 335.507812 242.828125 338.070312 248.09375 340.289062 253.523438 C 342.507812 258.957031 344.367188 264.507812 345.863281 270.183594 C 347.359375 275.855469 348.480469 281.601562 349.230469 287.421875 C 349.976562 293.242188 350.34375 299.085938 350.332031 304.953125 Z M 350.332031 304.953125 " fill-opacity="1" fill-rule="nonzero"/><path fill="#023e8a" d="M 219.304688 264.941406 C 218.875 270.234375 211.011719 281.519531 207.324219 282.132812 C 203.636719 281.519531 195.769531 270.234375 195.34375 264.941406 C 195.769531 259.648438 203.636719 248.355469 207.324219 247.742188 C 210.984375 248.363281 218.855469 259.648438 219.304688 264.941406 Z M 219.304688 264.941406 " fill-opacity="1" fill-rule="nonzero"/><g clip-path="url(#9fee138961)"><path fill="#023e8a" d="M 207.292969 71.378906 L 55.367188 104.832031 L 207.292969 138.289062 L 359.21875 104.832031 Z M 207.292969 71.378906 " fill-opacity="1" fill-rule="nonzero"/></g><g clip-path="url(#b721d0f301)"><path fill="#0077b6" d="M 191.132812 413.050781 C 190.703125 413.050781 190.277344 413.089844 189.855469 413.167969 C 189.429688 413.246094 189.019531 413.359375 188.617188 413.511719 C 188.214844 413.660156 187.828125 413.847656 187.457031 414.066406 C 187.085938 414.285156 186.742188 414.535156 186.414062 414.816406 C 186.089844 415.09375 185.792969 415.402344 185.519531 415.734375 C 185.25 416.070312 185.007812 416.425781 184.800781 416.800781 C 184.59375 417.175781 184.417969 417.566406 184.28125 417.972656 C 184.140625 418.382812 184.039062 418.796875 183.976562 419.222656 C 183.601562 418.957031 183.207031 418.730469 182.789062 418.539062 C 182.375 418.351562 181.941406 418.203125 181.5 418.097656 C 181.054688 417.988281 180.601562 417.925781 180.144531 417.90625 C 179.6875 417.882812 179.234375 417.90625 178.78125 417.972656 C 178.328125 418.039062 177.886719 418.148438 177.453125 418.300781 C 177.019531 418.453125 176.605469 418.640625 176.210938 418.871094 C 175.816406 419.101562 175.445312 419.367188 175.101562 419.671875 C 174.757812 419.972656 174.445312 420.300781 174.164062 420.664062 L 174.164062 420.335938 C 174.164062 419.855469 174.117188 419.382812 174.023438 418.914062 C 173.929688 418.449219 173.792969 417.992188 173.609375 417.550781 C 173.425781 417.109375 173.203125 416.691406 172.9375 416.292969 C 172.671875 415.894531 172.371094 415.527344 172.03125 415.191406 C 171.695312 414.855469 171.328125 414.550781 170.929688 414.285156 C 170.535156 414.019531 170.113281 413.796875 169.671875 413.613281 C 169.230469 413.433594 168.777344 413.292969 168.308594 413.199219 C 167.839844 413.105469 167.367188 413.0625 166.890625 413.0625 C 166.410156 413.0625 165.9375 413.105469 165.46875 413.199219 C 165 413.292969 164.546875 413.433594 164.105469 413.613281 C 163.664062 413.796875 163.246094 414.019531 162.847656 414.285156 C 162.449219 414.550781 162.082031 414.855469 161.746094 415.191406 C 161.40625 415.527344 161.105469 415.894531 160.839844 416.292969 C 160.574219 416.691406 160.351562 417.109375 160.167969 417.550781 C 159.984375 417.992188 159.847656 418.449219 159.753906 418.914062 C 159.660156 419.382812 159.613281 419.855469 159.613281 420.335938 L 159.613281 439.730469 C 159.609375 440.484375 159.71875 441.222656 159.945312 441.945312 C 160.171875 442.664062 160.503906 443.332031 160.9375 443.949219 C 161.371094 444.566406 161.890625 445.105469 162.496094 445.558594 C 163.097656 446.011719 163.753906 446.363281 164.46875 446.613281 C 165.183594 446.863281 165.914062 446.996094 166.671875 447.015625 C 167.425781 447.03125 168.164062 446.9375 168.890625 446.722656 C 169.613281 446.511719 170.289062 446.191406 170.914062 445.765625 C 171.539062 445.34375 172.085938 444.832031 172.550781 444.238281 L 172.550781 444.578125 C 172.511719 445.050781 172.523438 445.523438 172.578125 445.996094 C 172.636719 446.46875 172.738281 446.929688 172.886719 447.382812 C 173.03125 447.832031 173.222656 448.265625 173.457031 448.679688 C 173.6875 449.09375 173.960938 449.484375 174.269531 449.84375 C 174.578125 450.203125 174.917969 450.53125 175.292969 450.824219 C 175.667969 451.117188 176.066406 451.371094 176.488281 451.589844 C 176.914062 451.804688 177.355469 451.976562 177.8125 452.101562 C 178.269531 452.230469 178.734375 452.3125 179.207031 452.351562 C 179.683594 452.386719 180.15625 452.375 180.625 452.320312 C 181.097656 452.261719 181.558594 452.160156 182.011719 452.015625 C 182.464844 451.867188 182.898438 451.675781 183.3125 451.445312 C 183.726562 451.210938 184.113281 450.941406 184.472656 450.628906 C 184.835938 450.320312 185.160156 449.980469 185.457031 449.605469 C 185.75 449.234375 186.003906 448.832031 186.21875 448.410156 C 186.433594 447.988281 186.605469 447.546875 186.734375 447.089844 C 186.863281 446.628906 186.945312 446.164062 186.980469 445.691406 C 188.222656 446.570312 189.609375 447.011719 191.132812 447.015625 C 191.609375 447.015625 192.082031 446.964844 192.550781 446.871094 C 193.019531 446.777344 193.472656 446.640625 193.914062 446.457031 C 194.351562 446.273438 194.773438 446.046875 195.167969 445.78125 C 195.566406 445.519531 195.933594 445.214844 196.269531 444.878906 C 196.605469 444.542969 196.910156 444.175781 197.171875 443.777344 C 197.4375 443.382812 197.664062 442.960938 197.847656 442.523438 C 198.03125 442.082031 198.167969 441.628906 198.261719 441.160156 C 198.355469 440.691406 198.40625 440.21875 198.40625 439.742188 L 198.40625 420.335938 C 198.40625 419.855469 198.359375 419.382812 198.265625 418.914062 C 198.171875 418.445312 198.035156 417.992188 197.851562 417.550781 C 197.667969 417.109375 197.445312 416.691406 197.179688 416.292969 C 196.914062 415.894531 196.613281 415.527344 196.273438 415.1875 C 195.9375 414.851562 195.570312 414.550781 195.171875 414.28125 C 194.777344 414.015625 194.355469 413.792969 193.914062 413.609375 C 193.476562 413.425781 193.019531 413.285156 192.550781 413.191406 C 192.082031 413.097656 191.609375 413.050781 191.132812 413.050781 Z M 191.132812 413.050781 " fill-opacity="1" fill-rule="nonzero"/></g><g clip-path="url(#b9385473e5)"><path fill="#0077b6" d="M 223.457031 413.050781 C 223.886719 413.050781 224.3125 413.09375 224.734375 413.167969 C 225.160156 413.246094 225.570312 413.359375 225.972656 413.511719 C 226.375 413.664062 226.761719 413.847656 227.132812 414.066406 C 227.5 414.285156 227.851562 414.535156 228.175781 414.816406 C 228.5 415.097656 228.800781 415.402344 229.070312 415.738281 C 229.34375 416.070312 229.582031 416.425781 229.789062 416.800781 C 230 417.175781 230.171875 417.566406 230.3125 417.976562 C 230.453125 418.382812 230.554688 418.796875 230.621094 419.222656 C 230.992188 418.957031 231.386719 418.726562 231.804688 418.535156 C 232.222656 418.34375 232.65625 418.195312 233.101562 418.089844 C 233.546875 417.980469 234 417.917969 234.457031 417.894531 C 234.917969 417.875 235.371094 417.898438 235.828125 417.964844 C 236.28125 418.03125 236.722656 418.140625 237.15625 418.289062 C 237.589844 418.441406 238.003906 418.632812 238.402344 418.867188 C 238.796875 419.097656 239.167969 419.363281 239.515625 419.664062 C 239.859375 419.96875 240.171875 420.300781 240.453125 420.664062 L 240.453125 420.335938 C 240.464844 419.867188 240.523438 419.402344 240.625 418.945312 C 240.730469 418.488281 240.875 418.042969 241.0625 417.613281 C 241.253906 417.183594 241.480469 416.777344 241.746094 416.390625 C 242.015625 416.003906 242.316406 415.648438 242.652344 415.320312 C 242.988281 414.996094 243.355469 414.703125 243.746094 414.445312 C 244.140625 414.191406 244.554688 413.972656 244.988281 413.796875 C 245.421875 413.621094 245.871094 413.488281 246.332031 413.398438 C 246.789062 413.308594 247.253906 413.261719 247.726562 413.261719 C 248.195312 413.261719 248.660156 413.308594 249.121094 413.398438 C 249.578125 413.488281 250.027344 413.621094 250.460938 413.796875 C 250.898438 413.972656 251.308594 414.191406 251.703125 414.445312 C 252.097656 414.703125 252.460938 414.996094 252.796875 415.320312 C 253.132812 415.648438 253.433594 416.003906 253.703125 416.390625 C 253.96875 416.777344 254.199219 417.183594 254.386719 417.613281 C 254.574219 418.042969 254.71875 418.488281 254.824219 418.945312 C 254.925781 419.402344 254.984375 419.867188 254.996094 420.335938 L 254.996094 439.730469 C 255 440.484375 254.890625 441.222656 254.664062 441.941406 C 254.4375 442.660156 254.105469 443.328125 253.671875 443.945312 C 253.238281 444.5625 252.71875 445.097656 252.117188 445.550781 C 251.511719 446.007812 250.855469 446.359375 250.144531 446.605469 C 249.429688 446.855469 248.699219 446.988281 247.941406 447.007812 C 247.1875 447.027344 246.449219 446.929688 245.726562 446.71875 C 245 446.503906 244.328125 446.1875 243.703125 445.765625 C 243.078125 445.339844 242.53125 444.832031 242.066406 444.238281 L 242.066406 444.578125 C 242.105469 445.050781 242.09375 445.523438 242.035156 445.996094 C 241.980469 446.46875 241.878906 446.929688 241.730469 447.382812 C 241.582031 447.832031 241.390625 448.265625 241.160156 448.679688 C 240.925781 449.09375 240.65625 449.480469 240.34375 449.84375 C 240.035156 450.203125 239.695312 450.53125 239.320312 450.824219 C 238.945312 451.117188 238.546875 451.371094 238.125 451.585938 C 237.699219 451.800781 237.261719 451.972656 236.800781 452.101562 C 236.34375 452.230469 235.878906 452.3125 235.40625 452.347656 C 234.929688 452.386719 234.457031 452.375 233.988281 452.320312 C 233.515625 452.261719 233.054688 452.160156 232.601562 452.011719 C 232.148438 451.867188 231.714844 451.675781 231.300781 451.441406 C 230.886719 451.210938 230.5 450.9375 230.140625 450.628906 C 229.777344 450.320312 229.453125 449.980469 229.15625 449.605469 C 228.863281 449.230469 228.609375 448.832031 228.394531 448.410156 C 228.179688 447.984375 228.007812 447.546875 227.878906 447.089844 C 227.75 446.628906 227.667969 446.164062 227.628906 445.691406 C 226.386719 446.574219 225.003906 447.015625 223.480469 447.015625 C 223 447.015625 222.53125 446.964844 222.0625 446.871094 C 221.59375 446.777344 221.140625 446.640625 220.699219 446.457031 C 220.257812 446.273438 219.839844 446.046875 219.445312 445.78125 C 219.046875 445.515625 218.679688 445.214844 218.34375 444.878906 C 218.007812 444.539062 217.707031 444.175781 217.441406 443.777344 C 217.175781 443.378906 216.949219 442.960938 216.769531 442.519531 C 216.585938 442.082031 216.445312 441.625 216.351562 441.160156 C 216.257812 440.691406 216.210938 440.21875 216.210938 439.742188 L 216.210938 420.335938 C 216.210938 419.859375 216.257812 419.386719 216.351562 418.917969 C 216.441406 418.453125 216.582031 417.996094 216.761719 417.558594 C 216.945312 417.117188 217.167969 416.699219 217.433594 416.300781 C 217.695312 415.902344 217.996094 415.535156 218.332031 415.199219 C 218.667969 414.859375 219.035156 414.558594 219.429688 414.292969 C 219.824219 414.027344 220.242188 413.800781 220.679688 413.617188 C 221.121094 413.433594 221.574219 413.292969 222.042969 413.195312 C 222.507812 413.101562 222.980469 413.050781 223.457031 413.050781 Z M 223.457031 413.050781 " fill-opacity="1" fill-rule="nonzero"/></g><path fill="#ea392c" d="M 188.804688 327.660156 C 184.710938 327.660156 181.621094 323.695312 181.621094 318.441406 C 181.621094 317.101562 182.855469 316.015625 184.402344 316.015625 C 185.949219 316.015625 187.1875 317.101562 187.1875 318.441406 C 187.1875 321.148438 188.421875 322.683594 188.890625 322.8125 C 189.273438 322.683594 190.507812 321.140625 190.507812 318.441406 C 190.507812 317.101562 191.746094 316.015625 193.292969 316.015625 C 194.839844 316.015625 196.074219 317.101562 196.074219 318.441406 C 195.996094 323.695312 192.90625 327.660156 188.804688 327.660156 Z M 188.804688 327.660156 " fill-opacity="1" fill-rule="nonzero"/><path fill="#ea392c" d="M 225.78125 327.660156 C 221.6875 327.660156 218.59375 323.695312 218.59375 318.441406 C 218.59375 317.101562 219.832031 316.015625 221.375 316.015625 C 222.917969 316.015625 224.15625 317.101562 224.15625 318.441406 C 224.15625 321.148438 225.394531 322.683594 225.859375 322.8125 C 226.246094 322.683594 227.476562 321.140625 227.476562 318.441406 C 227.476562 317.101562 228.714844 316.015625 230.257812 316.015625 C 231.800781 316.015625 233.039062 317.101562 233.039062 318.441406 C 232.972656 323.695312 229.878906 327.660156 225.78125 327.660156 Z M 225.78125 327.660156 " fill-opacity="1" fill-rule="nonzero"/><path fill="#ea392c" d="M 169.632812 350.484375 C 165.535156 350.484375 162.449219 346.519531 162.449219 341.265625 C 162.449219 339.929688 163.683594 338.839844 165.230469 338.839844 C 166.777344 338.839844 168.011719 339.953125 168.011719 341.265625 C 168.011719 343.972656 169.25 345.507812 169.714844 345.636719 C 170.101562 345.507812 171.335938 343.964844 171.335938 341.265625 C 171.335938 339.929688 172.570312 338.839844 174.117188 338.839844 C 175.664062 338.839844 176.902344 339.953125 176.902344 341.265625 C 176.824219 346.519531 173.734375 350.484375 169.632812 350.484375 Z M 169.632812 350.484375 " fill-opacity="1" fill-rule="nonzero"/><path fill="#ea392c" d="M 207.292969 350.484375 C 203.199219 350.484375 200.105469 346.519531 200.105469 341.265625 C 200.105469 339.929688 201.34375 338.839844 202.886719 338.839844 C 204.429688 338.839844 205.667969 339.953125 205.667969 341.265625 C 205.667969 343.972656 206.90625 345.507812 207.371094 345.636719 C 207.757812 345.507812 208.988281 343.964844 208.988281 341.265625 C 208.988281 339.929688 210.226562 338.839844 211.769531 338.839844 C 213.3125 338.839844 214.550781 339.953125 214.550781 341.265625 C 214.484375 346.519531 211.394531 350.484375 207.292969 350.484375 Z M 207.292969 350.484375 " fill-opacity="1" fill-rule="nonzero"/><path fill="#ea392c" d="M 244.957031 350.484375 C 240.859375 350.484375 237.765625 346.519531 237.765625 341.265625 C 237.765625 339.929688 239.007812 338.839844 240.546875 338.839844 C 242.089844 338.839844 243.332031 339.953125 243.332031 341.265625 C 243.332031 343.972656 244.5625 345.507812 245.035156 345.636719 C 245.417969 345.507812 246.648438 343.964844 246.648438 341.265625 C 246.648438 339.929688 247.890625 338.839844 249.429688 338.839844 C 250.972656 338.839844 252.214844 339.953125 252.214844 341.265625 C 252.140625 346.519531 249.058594 350.484375 244.957031 350.484375 Z M 244.957031 350.484375 " fill-opacity="1" fill-rule="nonzero"/><path fill="#ea392c" d="M 169.632812 396.128906 C 165.535156 396.128906 162.449219 392.167969 162.449219 386.914062 C 162.449219 385.578125 163.683594 384.492188 165.230469 384.492188 C 166.777344 384.492188 168.011719 385.578125 168.011719 386.914062 C 168.011719 389.617188 169.25 391.15625 169.714844 391.289062 C 170.101562 391.15625 171.335938 389.617188 171.335938 386.914062 C 171.335938 385.578125 172.570312 384.492188 174.117188 384.492188 C 175.664062 384.492188 176.902344 385.578125 176.902344 386.914062 C 176.824219 392.167969 173.734375 396.128906 169.632812 396.128906 Z M 169.632812 396.128906 " fill-opacity="1" fill-rule="nonzero"/><path fill="#ea392c" d="M 207.292969 396.128906 C 203.199219 396.128906 200.105469 392.167969 200.105469 386.914062 C 200.105469 385.578125 201.34375 384.492188 202.886719 384.492188 C 204.429688 384.492188 205.667969 385.578125 205.667969 386.914062 C 205.667969 389.617188 206.90625 391.15625 207.371094 391.289062 C 207.757812 391.15625 208.988281 389.617188 208.988281 386.914062 C 208.988281 385.578125 210.226562 384.492188 211.769531 384.492188 C 213.3125 384.492188 214.550781 385.578125 214.550781 386.914062 C 214.484375 392.167969 211.394531 396.128906 207.292969 396.128906 Z M 207.292969 396.128906 " fill-opacity="1" fill-rule="nonzero"/><path fill="#ea392c" d="M 244.957031 396.128906 C 240.859375 396.128906 237.765625 392.167969 237.765625 386.914062 C 237.765625 385.578125 239.007812 384.492188 240.546875 384.492188 C 242.089844 384.492188 243.332031 385.578125 243.332031 386.914062 C 243.332031 389.617188 244.5625 391.15625 245.035156 391.289062 C 245.417969 391.15625 246.648438 389.617188 246.648438 386.914062 C 246.648438 385.578125 247.890625 384.492188 249.429688 384.492188 C 250.972656 384.492188 252.214844 385.578125 252.214844 386.914062 C 252.140625 392.167969 249.058594 396.128906 244.957031 396.128906 Z M 244.957031 396.128906 " fill-opacity="1" fill-rule="nonzero"/><path fill="#ea392c" d="M 188.804688 373.308594 C 184.710938 373.308594 181.621094 369.34375 181.621094 364.089844 C 181.621094 362.753906 182.855469 361.667969 184.402344 361.667969 C 185.949219 361.667969 187.1875 362.753906 187.1875 364.089844 C 187.1875 366.796875 188.421875 368.332031 188.890625 368.464844 C 189.273438 368.332031 190.507812 366.796875 190.507812 364.089844 C 190.507812 362.753906 191.746094 361.667969 193.292969 361.667969 C 194.839844 361.667969 196.074219 362.753906 196.074219 364.089844 C 195.996094 369.34375 192.90625 373.308594 188.804688 373.308594 Z M 188.804688 373.308594 " fill-opacity="1" fill-rule="nonzero"/><path fill="#ea392c" d="M 225.78125 373.308594 C 221.6875 373.308594 218.59375 369.34375 218.59375 364.089844 C 218.59375 362.753906 219.832031 361.667969 221.375 361.667969 C 222.917969 361.667969 224.15625 362.753906 224.15625 364.089844 C 224.15625 366.796875 225.394531 368.332031 225.859375 368.464844 C 226.246094 368.332031 227.476562 366.796875 227.476562 364.089844 C 227.476562 362.753906 228.714844 361.667969 230.257812 361.667969 C 231.800781 361.667969 233.039062 362.753906 233.039062 364.089844 C 232.972656 369.34375 229.878906 373.308594 225.78125 373.308594 Z M 225.78125 373.308594 " fill-opacity="1" fill-rule="nonzero"/><g fill="#0077b6" fill-opacity="1"><g transform="translate(463.163117, 356.321303)"><g><path d="M 100.15625 -179.890625 C 127.070312 -179.890625 148.320312 -171.582031 163.90625 -154.96875 C 179.5 -138.363281 187.296875 -116.09375 187.296875 -88.15625 C 187.296875 -60.382812 179.5 -38.148438 163.90625 -21.453125 C 148.320312 -4.765625 127.070312 3.578125 100.15625 3.578125 C 73.25 3.578125 52 -4.765625 36.40625 -21.453125 C 20.820312 -38.148438 13.03125 -60.382812 13.03125 -88.15625 C 13.03125 -116.09375 20.78125 -138.363281 36.28125 -154.96875 C 51.78125 -171.582031 73.070312 -179.890625 100.15625 -179.890625 Z M 63.234375 -39.984375 C 72.179688 -28.484375 84.488281 -22.734375 100.15625 -22.734375 C 115.832031 -22.734375 128.097656 -28.523438 136.953125 -40.109375 C 145.816406 -51.691406 150.25 -67.707031 150.25 -88.15625 C 150.25 -108.757812 145.816406 -124.8125 136.953125 -136.3125 C 128.097656 -147.8125 115.832031 -153.5625 100.15625 -153.5625 C 84.320312 -153.5625 71.972656 -147.8125 63.109375 -136.3125 C 54.253906 -124.8125 49.828125 -108.753906 49.828125 -88.140625 C 49.828125 -67.535156 54.296875 -51.484375 63.234375 -39.984375 Z M 63.234375 -39.984375 "/></g></g></g><g fill="#0077b6" fill-opacity="1"><g transform="translate(666.293916, 356.321303)"><g><path d="M 212.59375 -135.9375 L 169.40625 0 L 129.546875 0 L 106.546875 -103.484375 L 83.296875 0 L 43.1875 0 L 0 -135.9375 L 39.34375 -135.9375 L 63.375 -29.390625 L 85.59375 -135.421875 L 128.015625 -135.421875 L 151.015625 -29.640625 L 174.765625 -135.9375 Z M 212.59375 -135.9375 "/></g></g></g><g fill="#0077b6" fill-opacity="1"><g transform="translate(886.288427, 356.321303)"><g><path d="M 50.34375 -187.796875 L 50.34375 -44.453125 C 50.34375 -38.492188 50.425781 -34.320312 50.59375 -31.9375 C 50.9375 -28.363281 52.210938 -25.976562 54.421875 -24.78125 C 56.640625 -23.59375 60.644531 -23.164062 66.4375 -23.5 L 66.4375 0.765625 C 60.300781 1.441406 53.0625 1.78125 44.71875 1.78125 C 25.976562 1.78125 16.269531 -6.222656 15.59375 -22.234375 C 15.25 -26.316406 15.078125 -33.46875 15.078125 -43.6875 L 15.078125 -187.796875 Z M 50.34375 -187.796875 "/></g></g></g><g fill="#0077b6" fill-opacity="1"><g transform="translate(965.241203, 356.321303)"><g/></g></g><g fill="#0077b6" fill-opacity="1"><g transform="translate(1022.475644, 356.321303)"><g><path d="M 160.71875 -148.703125 L 100.921875 -148.703125 L 100.921875 0 L 65.671875 0 L 65.671875 -148.703125 L 5.875 -148.703125 L 5.875 -176.3125 L 160.71875 -176.3125 Z M 160.71875 -148.703125 "/></g></g></g><g fill="#0077b6" fill-opacity="1"><g transform="translate(1189.323968, 356.321303)"><g><path d="M 139.515625 -70.78125 C 139.515625 -65.84375 139.34375 -61.835938 139 -58.765625 L 42.421875 -58.765625 C 44.460938 -33.722656 54.9375 -21.203125 73.84375 -21.203125 C 81.507812 -21.203125 87.851562 -23.242188 92.875 -27.328125 C 97.90625 -31.421875 101.015625 -37.046875 102.203125 -44.203125 L 137.46875 -44.203125 C 134.0625 -28.703125 126.609375 -16.863281 115.109375 -8.6875 C 103.609375 -0.507812 89.597656 3.578125 73.078125 3.578125 C 53.484375 3.578125 37.554688 -2.507812 25.296875 -14.6875 C 13.035156 -26.875 6.90625 -44.460938 6.90625 -67.453125 C 6.90625 -88.578125 13.25 -105.867188 25.9375 -119.328125 C 38.625 -132.785156 55.273438 -139.515625 75.890625 -139.515625 C 95.816406 -139.515625 111.398438 -132.953125 122.640625 -119.828125 C 133.890625 -106.710938 139.515625 -90.363281 139.515625 -70.78125 Z M 74.359375 -114.71875 C 56.804688 -114.71875 46.5 -103.734375 43.4375 -81.765625 L 103.234375 -81.765625 C 100.847656 -103.734375 91.222656 -114.71875 74.359375 -114.71875 Z M 74.359375 -114.71875 "/></g></g></g><g fill="#0077b6" fill-opacity="1"><g transform="translate(1344.674388, 356.321303)"><g><path d="M 64.640625 -139.515625 C 80.316406 -139.515625 92.835938 -135.59375 102.203125 -127.75 C 111.578125 -119.914062 117.03125 -109.523438 118.5625 -96.578125 L 83.296875 -96.578125 C 80.910156 -109.703125 73.925781 -116.265625 62.34375 -116.265625 C 57.238281 -116.265625 53.28125 -114.941406 50.46875 -112.296875 C 47.65625 -109.660156 46.25 -106.125 46.25 -101.6875 C 46.25 -96.582031 48.546875 -92.492188 53.140625 -89.421875 C 57.742188 -86.359375 65.753906 -83.378906 77.171875 -80.484375 C 91.984375 -76.734375 103.050781 -71.535156 110.375 -64.890625 C 117.707031 -58.253906 121.375 -48.972656 121.375 -37.046875 C 121.375 -23.929688 116.132812 -13.878906 105.65625 -6.890625 C 95.175781 0.0859375 81.757812 3.578125 65.40625 3.578125 C 48.375 3.578125 34.578125 -0.164062 24.015625 -7.65625 C 13.453125 -15.15625 7.234375 -26.398438 5.359375 -41.390625 L 40.625 -41.390625 C 41.988281 -34.234375 44.925781 -28.820312 49.4375 -25.15625 C 53.957031 -21.5 59.453125 -19.671875 65.921875 -19.671875 C 71.878906 -19.671875 76.691406 -20.945312 80.359375 -23.5 C 84.023438 -26.0625 85.859375 -29.726562 85.859375 -34.5 C 85.859375 -39.78125 83.382812 -44.078125 78.4375 -47.390625 C 73.5 -50.710938 65.15625 -53.820312 53.40625 -56.71875 C 39.601562 -60.125 29.039062 -65.019531 21.71875 -71.40625 C 14.394531 -77.800781 10.734375 -86.535156 10.734375 -97.609375 C 10.734375 -110.554688 15.628906 -120.773438 25.421875 -128.265625 C 35.210938 -135.765625 48.285156 -139.515625 64.640625 -139.515625 Z M 64.640625 -139.515625 "/></g></g></g><g fill="#0077b6" fill-opacity="1"><g transform="translate(1479.328455, 356.321303)"><g><path d="M 58.25 -111.65625 L 58.25 -48.796875 C 58.25 -43.179688 58.335938 -39.179688 58.515625 -36.796875 C 59.023438 -30.148438 60.984375 -25.847656 64.390625 -23.890625 C 67.796875 -21.929688 74.351562 -21.289062 84.0625 -21.96875 L 84.0625 1.015625 C 76.738281 2.210938 68.988281 2.8125 60.8125 2.8125 C 47.863281 2.8125 38.617188 0.640625 33.078125 -3.703125 C 27.546875 -8.046875 24.351562 -15.160156 23.5 -25.046875 C 23.164062 -29.128906 23 -35.6875 23 -44.71875 L 23 -111.65625 L 3.0625 -111.65625 L 3.0625 -134.90625 L 23 -134.90625 L 23 -168.390625 L 58.25 -168.390625 L 58.25 -134.90625 L 86.359375 -134.90625 L 86.359375 -111.65625 Z M 58.25 -111.65625 "/></g></g></g></svg>