<svg xmlns="http://www.w3.org/2000/svg" xmlns:xlink="http://www.w3.org/1999/xlink" width="500" zoomAndPan="magnify" viewBox="0 0 375 374.999991" height="500" preserveAspectRatio="xMidYMid meet" version="1.0"><defs><clipPath id="359a2f53cc"><path d="M 37.5 85 L 174 85 L 174 118 L 37.5 118 Z M 37.5 85 " clip-rule="nonzero"/></clipPath><clipPath id="3d55d81c72"><path d="M 201 85 L 337.5 85 L 337.5 118 L 201 118 Z M 201 85 " clip-rule="nonzero"/></clipPath><clipPath id="e439df36df"><path d="M 39 1.164062 L 337 1.164062 L 337 67 L 39 67 Z M 39 1.164062 " clip-rule="nonzero"/></clipPath><clipPath id="0e3b68748c"><path d="M 140 335 L 179 335 L 179 373.914062 L 140 373.914062 Z M 140 335 " clip-rule="nonzero"/></clipPath><clipPath id="74bc8efbbe"><path d="M 196 335 L 235 335 L 235 373.914062 L 196 373.914062 Z M 196 335 " clip-rule="nonzero"/></clipPath></defs><path fill="#ea392c" d="M 312.710938 118.605469 C 259.230469 113.507812 203.359375 108.367188 194.203125 140.886719 C 190.9375 140.5625 186.394531 140.527344 180.1875 140.574219 C 170.726562 113.617188 140.113281 111.0625 62.34375 118.296875 C 55.878906 118.894531 57.992188 126.925781 62.34375 126.523438 C 63.066406 126.523438 66.828125 126.136719 72.523438 125.625 C 65.515625 179.011719 107.144531 214.367188 144.933594 203.707031 C 172.425781 195.953125 184.953125 170.171875 182.148438 148.851562 C 186.433594 148.929688 189.910156 149.164062 192.671875 149.308594 C 188.320312 191.863281 236.144531 221.867188 273.191406 196.683594 C 297.378906 180.246094 306.292969 154.351562 302.527344 125.917969 C 305.789062 126.195312 309.167969 126.496094 312.683594 126.832031 C 317.4375 127.285156 318.78125 119.1875 312.710938 118.605469 Z M 153.671875 191.136719 C 128.554688 205.96875 100.753906 193.3125 87.179688 168.914062 C 76.84375 150.269531 80.199219 134.058594 80.980469 124.90625 C 103.664062 123.109375 140.828125 121.257812 157.539062 127.753906 C 184.21875 138.125 176.804688 177.476562 153.671875 191.136719 Z M 216.78125 188.25 C 197.269531 172.144531 192.707031 138.34375 216.996094 128.007812 C 216.117188 128.382812 225.410156 120.109375 294.164062 125.25 C 303.277344 183.476562 248.460938 214.378906 216.800781 188.25 Z M 216.78125 188.25 " fill-opacity="1" fill-rule="nonzero"/><path fill="#023e8a" d="M 133.03125 136.019531 C 130.867188 136.019531 128.746094 136.335938 126.675781 136.96875 C 127.261719 137.433594 127.796875 137.957031 128.277344 138.53125 C 128.753906 139.105469 129.171875 139.722656 129.527344 140.382812 C 129.882812 141.042969 130.164062 141.734375 130.378906 142.453125 C 130.59375 143.167969 130.730469 143.902344 130.796875 144.648438 C 130.859375 145.394531 130.847656 146.140625 130.761719 146.882812 C 130.671875 147.628906 130.511719 148.355469 130.273438 149.066406 C 130.039062 149.777344 129.734375 150.457031 129.359375 151.105469 C 128.984375 151.753906 128.546875 152.359375 128.050781 152.917969 C 127.550781 153.480469 127.003906 153.984375 126.402344 154.429688 C 125.800781 154.878906 125.160156 155.261719 124.480469 155.578125 C 123.804688 155.894531 123.101562 156.140625 122.371094 156.316406 C 121.640625 156.488281 120.902344 156.585938 120.15625 156.609375 C 119.40625 156.632812 118.664062 156.582031 117.925781 156.453125 C 117.1875 156.324219 116.46875 156.121094 115.773438 155.847656 C 115.074219 155.574219 114.414062 155.230469 113.785156 154.820312 C 113.15625 154.410156 112.578125 153.941406 112.046875 153.414062 C 111.792969 154.699219 111.664062 155.996094 111.660156 157.304688 C 111.660156 158.003906 111.691406 158.699219 111.761719 159.394531 C 111.828125 160.089844 111.929688 160.78125 112.066406 161.464844 C 112.199219 162.152344 112.371094 162.828125 112.570312 163.5 C 112.773438 164.167969 113.007812 164.824219 113.273438 165.46875 C 113.539062 166.117188 113.839844 166.746094 114.167969 167.363281 C 114.496094 167.980469 114.855469 168.578125 115.242188 169.160156 C 115.628906 169.742188 116.042969 170.304688 116.484375 170.84375 C 116.929688 171.382812 117.398438 171.902344 117.890625 172.398438 C 118.382812 172.890625 118.898438 173.359375 119.441406 173.804688 C 119.980469 174.25 120.539062 174.664062 121.121094 175.054688 C 121.699219 175.441406 122.296875 175.800781 122.914062 176.132812 C 123.53125 176.460938 124.160156 176.761719 124.804688 177.03125 C 125.449219 177.296875 126.105469 177.535156 126.777344 177.738281 C 127.445312 177.941406 128.121094 178.109375 128.804688 178.25 C 129.492188 178.386719 130.179688 178.488281 130.875 178.558594 C 131.570312 178.628906 132.269531 178.664062 132.96875 178.664062 C 133.664062 178.664062 134.363281 178.628906 135.058594 178.5625 C 135.753906 178.496094 136.445312 178.394531 137.128906 178.257812 C 137.816406 178.121094 138.492188 177.953125 139.160156 177.753906 C 139.828125 177.550781 140.488281 177.316406 141.132812 177.050781 C 141.777344 176.78125 142.410156 176.484375 143.027344 176.15625 C 143.644531 175.828125 144.242188 175.46875 144.824219 175.082031 C 145.40625 174.695312 145.964844 174.28125 146.507812 173.835938 C 147.046875 173.394531 147.566406 172.925781 148.058594 172.433594 C 148.554688 171.9375 149.023438 171.421875 149.464844 170.882812 C 149.910156 170.34375 150.328125 169.785156 150.714844 169.203125 C 151.105469 168.621094 151.464844 168.023438 151.792969 167.410156 C 152.125 166.792969 152.421875 166.164062 152.691406 165.515625 C 152.960938 164.871094 153.195312 164.214844 153.398438 163.546875 C 153.601562 162.878906 153.773438 162.203125 153.910156 161.515625 C 154.046875 160.832031 154.148438 160.140625 154.21875 159.445312 C 154.289062 158.75 154.324219 158.054688 154.324219 157.355469 C 154.324219 156.65625 154.292969 155.960938 154.222656 155.265625 C 154.15625 154.570312 154.054688 153.878906 153.917969 153.191406 C 153.785156 152.507812 153.613281 151.832031 153.414062 151.160156 C 153.210938 150.492188 152.976562 149.835938 152.710938 149.191406 C 152.441406 148.542969 152.144531 147.914062 151.816406 147.296875 C 151.488281 146.679688 151.128906 146.082031 150.742188 145.5 C 150.355469 144.917969 149.9375 144.355469 149.496094 143.816406 C 149.054688 143.277344 148.585938 142.757812 148.09375 142.261719 C 147.597656 141.769531 147.082031 141.300781 146.542969 140.855469 C 146.003906 140.414062 145.441406 139.996094 144.863281 139.605469 C 144.28125 139.21875 143.683594 138.859375 143.066406 138.527344 C 142.453125 138.199219 141.820312 137.898438 141.175781 137.632812 C 140.53125 137.363281 139.875 137.128906 139.207031 136.925781 C 138.539062 136.722656 137.859375 136.550781 137.175781 136.414062 C 136.492188 136.277344 135.800781 136.171875 135.105469 136.105469 C 134.410156 136.035156 133.714844 136 133.015625 136 Z M 134.46875 166.910156 C 134.03125 166.910156 133.601562 166.867188 133.175781 166.785156 C 132.75 166.699219 132.335938 166.574219 131.933594 166.40625 C 131.53125 166.238281 131.148438 166.035156 130.789062 165.792969 C 130.425781 165.550781 130.09375 165.277344 129.785156 164.96875 C 129.480469 164.660156 129.203125 164.324219 128.964844 163.964844 C 128.722656 163.601562 128.519531 163.21875 128.351562 162.820312 C 128.1875 162.417969 128.0625 162.003906 127.976562 161.574219 C 127.894531 161.148438 127.851562 160.71875 127.851562 160.285156 C 127.851562 159.847656 127.894531 159.417969 127.980469 158.992188 C 128.066406 158.566406 128.191406 158.152344 128.359375 157.75 C 128.523438 157.347656 128.730469 156.96875 128.972656 156.605469 C 129.214844 156.246094 129.488281 155.910156 129.796875 155.605469 C 130.105469 155.296875 130.4375 155.023438 130.800781 154.78125 C 131.164062 154.539062 131.542969 154.335938 131.945312 154.171875 C 132.347656 154.003906 132.761719 153.878906 133.1875 153.796875 C 133.617188 153.710938 134.046875 153.667969 134.480469 153.671875 C 134.917969 153.671875 135.347656 153.714844 135.773438 153.800781 C 136.199219 153.882812 136.613281 154.011719 137.015625 154.175781 C 137.417969 154.34375 137.796875 154.550781 138.160156 154.792969 C 138.519531 155.035156 138.855469 155.308594 139.160156 155.617188 C 139.46875 155.925781 139.742188 156.257812 139.984375 156.621094 C 140.222656 156.984375 140.425781 157.363281 140.59375 157.765625 C 140.757812 158.167969 140.882812 158.582031 140.96875 159.011719 C 141.050781 159.4375 141.09375 159.867188 141.09375 160.300781 C 141.09375 160.738281 141.050781 161.167969 140.964844 161.59375 C 140.878906 162.019531 140.753906 162.433594 140.585938 162.835938 C 140.421875 163.234375 140.214844 163.617188 139.972656 163.976562 C 139.730469 164.339844 139.457031 164.671875 139.148438 164.980469 C 138.84375 165.289062 138.507812 165.5625 138.144531 165.800781 C 137.785156 166.042969 137.402344 166.246094 137 166.414062 C 136.597656 166.578125 136.183594 166.703125 135.757812 166.785156 C 135.332031 166.871094 134.902344 166.914062 134.46875 166.910156 Z M 134.46875 166.910156 " fill-opacity="1" fill-rule="nonzero"/><path fill="#023e8a" d="M 220.691406 157.375 C 220.703125 158.066406 220.75 158.753906 220.828125 159.441406 C 220.90625 160.128906 221.019531 160.8125 221.164062 161.488281 C 221.308594 162.164062 221.488281 162.832031 221.695312 163.488281 C 221.90625 164.148438 222.148438 164.796875 222.421875 165.429688 C 222.695312 166.066406 222.996094 166.6875 223.332031 167.292969 C 223.664062 167.898438 224.027344 168.488281 224.417969 169.058594 C 224.808594 169.628906 225.222656 170.179688 225.667969 170.710938 C 226.113281 171.238281 226.582031 171.746094 227.074219 172.230469 C 227.566406 172.714844 228.082031 173.175781 228.621094 173.609375 C 229.160156 174.042969 229.71875 174.453125 230.296875 174.832031 C 230.875 175.210938 231.46875 175.5625 232.082031 175.886719 C 232.691406 176.207031 233.316406 176.5 233.957031 176.761719 C 234.597656 177.023438 235.25 177.25 235.914062 177.449219 C 236.574219 177.648438 237.246094 177.8125 237.925781 177.945312 C 238.601562 178.078125 239.285156 178.179688 239.976562 178.246094 C 240.664062 178.3125 241.355469 178.34375 242.046875 178.34375 C 242.738281 178.34375 243.425781 178.308594 244.113281 178.238281 C 244.804688 178.171875 245.484375 178.070312 246.164062 177.9375 C 246.84375 177.800781 247.511719 177.636719 248.175781 177.4375 C 248.835938 177.234375 249.488281 177.003906 250.128906 176.742188 C 250.769531 176.480469 251.394531 176.1875 252.003906 175.863281 C 252.617188 175.539062 253.210938 175.1875 253.785156 174.804688 C 254.363281 174.421875 254.921875 174.015625 255.457031 173.578125 C 255.996094 173.144531 256.507812 172.683594 257 172.195312 C 257.492188 171.710938 257.960938 171.203125 258.402344 170.671875 C 258.847656 170.140625 259.261719 169.589844 259.652344 169.019531 C 260.042969 168.445312 260.402344 167.855469 260.734375 167.25 C 261.066406 166.644531 261.367188 166.023438 261.640625 165.386719 C 261.910156 164.75 262.152344 164.101562 262.359375 163.445312 C 262.566406 162.785156 262.742188 162.117188 262.886719 161.441406 C 263.03125 160.761719 263.140625 160.082031 263.21875 159.394531 C 263.296875 158.707031 263.339844 158.015625 263.351562 157.324219 C 263.351562 156.011719 263.226562 154.707031 262.976562 153.414062 C 261.949219 154.4375 260.769531 155.222656 259.433594 155.777344 C 258.09375 156.328125 256.703125 156.601562 255.253906 156.597656 C 254.113281 156.597656 252.996094 156.425781 251.90625 156.082031 C 250.816406 155.738281 249.804688 155.234375 248.875 154.574219 C 247.941406 153.914062 247.128906 153.128906 246.441406 152.21875 C 245.75 151.304688 245.21875 150.308594 244.839844 149.230469 C 244.460938 148.152344 244.253906 147.042969 244.21875 145.902344 C 244.183594 144.757812 244.324219 143.640625 244.640625 142.539062 C 244.953125 141.441406 245.429688 140.417969 246.0625 139.464844 C 246.695312 138.515625 247.457031 137.683594 248.351562 136.96875 C 246.277344 136.335938 244.160156 136.019531 241.992188 136.019531 C 241.292969 136.023438 240.597656 136.058594 239.902344 136.125 C 239.207031 136.195312 238.515625 136.300781 237.832031 136.4375 C 237.144531 136.574219 236.46875 136.742188 235.800781 136.949219 C 235.132812 137.152344 234.476562 137.386719 233.832031 137.65625 C 233.1875 137.921875 232.558594 138.222656 231.941406 138.550781 C 231.324219 138.882812 230.726562 139.242188 230.148438 139.628906 C 229.566406 140.019531 229.007812 140.4375 228.46875 140.878906 C 227.929688 141.324219 227.414062 141.792969 226.917969 142.285156 C 226.425781 142.78125 225.957031 143.300781 225.515625 143.839844 C 225.074219 144.378906 224.660156 144.941406 224.269531 145.523438 C 223.882812 146.101562 223.527344 146.703125 223.195312 147.320312 C 222.867188 147.933594 222.570312 148.566406 222.304688 149.210938 C 222.039062 149.855469 221.804688 150.515625 221.601562 151.183594 C 221.398438 151.851562 221.230469 152.527344 221.097656 153.214844 C 220.960938 153.898438 220.859375 154.589844 220.792969 155.285156 C 220.722656 155.980469 220.691406 156.675781 220.691406 157.375 Z M 233.933594 160.300781 C 233.933594 159.867188 233.976562 159.4375 234.058594 159.011719 C 234.144531 158.582031 234.269531 158.167969 234.433594 157.765625 C 234.597656 157.363281 234.804688 156.984375 235.042969 156.621094 C 235.285156 156.257812 235.558594 155.925781 235.867188 155.617188 C 236.171875 155.308594 236.507812 155.035156 236.867188 154.792969 C 237.230469 154.550781 237.609375 154.34375 238.011719 154.175781 C 238.414062 154.011719 238.828125 153.882812 239.253906 153.800781 C 239.679688 153.714844 240.109375 153.671875 240.546875 153.671875 C 240.980469 153.667969 241.410156 153.710938 241.835938 153.796875 C 242.265625 153.878906 242.679688 154.003906 243.082031 154.171875 C 243.484375 154.335938 243.863281 154.539062 244.226562 154.78125 C 244.589844 155.023438 244.921875 155.296875 245.230469 155.605469 C 245.539062 155.910156 245.8125 156.246094 246.054688 156.605469 C 246.296875 156.96875 246.503906 157.347656 246.667969 157.75 C 246.835938 158.152344 246.960938 158.566406 247.046875 158.992188 C 247.132812 159.417969 247.175781 159.847656 247.175781 160.285156 C 247.175781 160.71875 247.132812 161.148438 247.050781 161.574219 C 246.964844 162.003906 246.839844 162.417969 246.675781 162.820312 C 246.507812 163.21875 246.304688 163.601562 246.0625 163.964844 C 245.824219 164.324219 245.546875 164.660156 245.242188 164.96875 C 244.933594 165.277344 244.601562 165.550781 244.238281 165.792969 C 243.878906 166.035156 243.496094 166.238281 243.09375 166.40625 C 242.691406 166.574219 242.277344 166.699219 241.851562 166.785156 C 241.425781 166.867188 240.996094 166.910156 240.558594 166.910156 C 240.125 166.914062 239.695312 166.871094 239.269531 166.789062 C 238.84375 166.703125 238.425781 166.578125 238.027344 166.414062 C 237.625 166.246094 237.242188 166.042969 236.878906 165.804688 C 236.519531 165.5625 236.183594 165.289062 235.875 164.980469 C 235.566406 164.675781 235.292969 164.339844 235.050781 163.980469 C 234.808594 163.617188 234.605469 163.238281 234.4375 162.835938 C 234.273438 162.433594 234.144531 162.019531 234.0625 161.59375 C 233.976562 161.167969 233.933594 160.738281 233.933594 160.300781 Z M 233.933594 160.300781 " fill-opacity="1" fill-rule="nonzero"/><g clip-path="url(#359a2f53cc)"><path fill="#023e8a" d="M 173.042969 117.589844 C 162.644531 110.730469 151.167969 108.695312 139.738281 108.339844 C 128.308594 107.988281 116.757812 109.859375 104.554688 111.015625 C 101.496094 111.289062 98.417969 111.5625 95.308594 111.71875 C 92.195312 111.875 89.023438 111.929688 85.839844 111.851562 C 82.613281 111.757812 79.398438 111.5 76.199219 111.070312 C 72.964844 110.605469 69.78125 109.917969 66.640625 109.011719 C 63.503906 108.074219 60.460938 106.898438 57.511719 105.480469 C 54.570312 104.039062 51.789062 102.328125 49.175781 100.347656 C 46.597656 98.359375 44.292969 96.089844 42.269531 93.539062 C 40.324219 91.011719 38.789062 88.253906 37.671875 85.269531 C 39.835938 87.378906 42.167969 89.285156 44.667969 90.984375 C 47.121094 92.542969 49.6875 93.890625 52.359375 95.027344 C 57.640625 97.175781 63.109375 98.605469 68.769531 99.316406 C 79.9375 100.855469 91.382812 99.574219 103.375 98.460938 L 112.460938 97.667969 C 115.535156 97.46875 118.628906 97.253906 121.761719 97.1875 C 128.167969 96.96875 134.523438 97.410156 140.835938 98.511719 C 144.019531 99.101562 147.144531 99.90625 150.21875 100.925781 C 153.289062 101.96875 156.253906 103.261719 159.105469 104.808594 C 161.933594 106.382812 164.554688 108.238281 166.980469 110.378906 C 169.328125 112.507812 171.347656 114.910156 173.042969 117.589844 Z M 173.042969 117.589844 " fill-opacity="1" fill-rule="nonzero"/></g><path fill="#023e8a" d="M 168.839844 108.882812 C 164.722656 107.15625 160.519531 105.65625 156.238281 104.386719 C 152.183594 103.222656 148.0625 102.363281 143.878906 101.8125 C 139.835938 101.296875 135.78125 101.113281 131.707031 101.269531 C 129.707031 101.375 127.730469 101.46875 125.691406 101.761719 C 123.652344 102.058594 121.578125 102.308594 119.46875 102.65625 L 112.9375 103.699219 C 110.714844 104.003906 108.457031 104.363281 106.121094 104.585938 C 103.789062 104.808594 101.410156 104.988281 98.984375 104.96875 C 96.496094 105 94.027344 104.816406 91.570312 104.421875 C 86.550781 103.675781 81.910156 101.933594 77.640625 99.191406 C 73.484375 96.4375 70.074219 92.355469 68.886719 87.808594 C 72.199219 90.660156 75.984375 92.574219 80.242188 93.546875 C 84.1875 94.445312 88.175781 94.761719 92.210938 94.503906 C 100.078125 94.101562 108.304688 91.644531 117.449219 90.191406 C 122.023438 89.507812 126.898438 88.988281 131.867188 89.328125 C 136.78125 89.628906 141.5625 90.589844 146.210938 92.214844 C 155.363281 95.429688 163.59375 101.121094 168.839844 108.882812 Z M 168.839844 108.882812 " fill-opacity="1" fill-rule="nonzero"/><g clip-path="url(#3d55d81c72)"><path fill="#023e8a" d="M 201.972656 117.589844 C 212.375 110.730469 223.847656 108.695312 235.273438 108.339844 C 246.695312 107.988281 258.253906 109.859375 270.460938 111.015625 C 273.511719 111.289062 276.597656 111.5625 279.710938 111.71875 C 282.820312 111.875 286 111.929688 289.179688 111.851562 C 292.40625 111.765625 295.613281 111.511719 298.8125 111.089844 C 302.042969 110.621094 305.230469 109.933594 308.371094 109.027344 C 311.507812 108.09375 314.554688 106.914062 317.503906 105.496094 C 320.449219 104.054688 323.226562 102.34375 325.839844 100.363281 C 328.414062 98.371094 330.710938 96.09375 332.730469 93.539062 C 334.679688 91.011719 336.214844 88.253906 337.335938 85.269531 C 335.175781 87.375 332.855469 89.28125 330.363281 90.984375 C 327.917969 92.542969 325.359375 93.890625 322.695312 95.027344 C 317.414062 97.175781 311.941406 98.605469 306.285156 99.316406 C 295.121094 100.855469 283.671875 99.574219 271.683594 98.460938 L 262.59375 97.667969 C 259.527344 97.46875 256.425781 97.253906 253.296875 97.1875 C 246.890625 96.96875 240.53125 97.410156 234.214844 98.511719 C 231.03125 99.101562 227.898438 99.90625 224.820312 100.925781 C 221.75 101.96875 218.785156 103.261719 215.929688 104.808594 C 213.105469 106.382812 210.484375 108.242188 208.058594 110.378906 C 205.703125 112.507812 203.675781 114.910156 201.972656 117.589844 Z M 201.972656 117.589844 " fill-opacity="1" fill-rule="nonzero"/></g><path fill="#023e8a" d="M 206.1875 108.882812 C 210.304688 107.15625 214.507812 105.65625 218.789062 104.386719 C 222.84375 103.222656 226.960938 102.363281 231.144531 101.8125 C 235.1875 101.296875 239.246094 101.113281 243.320312 101.269531 C 245.320312 101.375 247.300781 101.46875 249.339844 101.761719 C 251.382812 102.058594 253.453125 102.308594 255.566406 102.65625 L 262.066406 103.699219 C 264.292969 104.003906 266.554688 104.363281 268.886719 104.585938 C 271.222656 104.808594 273.601562 104.988281 276.027344 104.96875 C 278.511719 105 280.980469 104.816406 283.4375 104.421875 C 288.457031 103.679688 293.101562 101.933594 297.367188 99.191406 C 301.519531 96.4375 304.9375 92.355469 306.121094 87.808594 C 302.8125 90.660156 299.027344 92.574219 294.769531 93.546875 C 290.824219 94.441406 286.835938 94.761719 282.800781 94.503906 C 274.9375 94.101562 266.707031 91.644531 257.566406 90.191406 C 252.984375 89.507812 248.113281 88.988281 243.148438 89.328125 C 238.234375 89.628906 233.453125 90.589844 228.804688 92.214844 C 219.660156 95.429688 211.433594 101.121094 206.1875 108.882812 Z M 206.1875 108.882812 " fill-opacity="1" fill-rule="nonzero"/><path fill="#0077b6" d="M 187.40625 113.964844 C 187.441406 113.910156 187.476562 113.855469 187.523438 113.808594 C 187.554688 113.855469 187.582031 113.917969 187.613281 113.964844 Z M 187.40625 113.964844 " fill-opacity="1" fill-rule="nonzero"/><path fill="#0077b6" d="M 267.300781 31.808594 L 267.300781 81.089844 C 251.816406 80.269531 236.25 80.296875 221.480469 84.691406 C 207.878906 88.734375 194.921875 97.28125 187.527344 109.070312 C 180.117188 97.28125 167.152344 88.753906 153.550781 84.691406 C 138.777344 80.296875 123.199219 80.269531 107.714844 81.089844 L 107.714844 31.808594 Z M 267.300781 31.808594 " fill-opacity="1" fill-rule="nonzero"/><path fill="#023e8a" d="M 114.648438 232.050781 C 129.027344 251.699219 133.085938 277.582031 129.675781 301.6875 C 127.542969 316.722656 122.753906 331.203125 116.511719 345.085938 C 114.59375 344.039062 112.703125 342.945312 110.839844 341.808594 C 108.976562 340.667969 107.140625 339.480469 105.335938 338.25 C 103.53125 337.019531 101.757812 335.746094 100.015625 334.425781 C 98.277344 333.105469 96.566406 331.746094 94.894531 330.34375 C 93.21875 328.9375 91.582031 327.496094 89.980469 326.007812 C 88.375 324.523438 86.8125 323 85.285156 321.4375 C 83.757812 319.875 82.269531 318.273438 80.824219 316.640625 C 79.375 315.003906 77.972656 313.332031 76.605469 311.625 C 75.242188 309.917969 73.921875 308.179688 72.644531 306.40625 C 71.363281 304.636719 70.132812 302.832031 68.941406 301 C 67.753906 299.167969 66.613281 297.304688 65.515625 295.414062 C 64.417969 293.527344 63.371094 291.609375 62.371094 289.667969 C 61.367188 287.726562 60.417969 285.761719 59.511719 283.769531 C 58.609375 281.78125 57.757812 279.773438 56.953125 277.742188 C 56.148438 275.707031 55.394531 273.660156 54.695312 271.589844 C 53.992188 269.519531 53.34375 267.4375 52.742188 265.335938 C 52.144531 263.234375 51.597656 261.117188 51.105469 258.992188 C 50.613281 256.863281 50.171875 254.722656 49.785156 252.574219 C 49.398438 250.421875 49.0625 248.265625 48.785156 246.097656 C 48.503906 243.929688 48.277344 241.757812 48.105469 239.582031 C 47.933594 237.402344 47.816406 235.222656 47.75 233.039062 C 47.6875 230.855469 47.675781 228.671875 47.722656 226.484375 C 47.765625 224.300781 47.863281 222.121094 48.015625 219.941406 C 48.171875 217.761719 48.378906 215.585938 48.636719 213.417969 C 48.898438 211.25 49.210938 209.085938 49.582031 206.933594 C 49.949219 204.78125 50.371094 202.636719 50.84375 200.503906 C 51.320312 198.371094 51.84375 196.253906 52.425781 194.144531 C 53.003906 192.039062 53.636719 189.949219 54.320312 187.875 C 55.003906 185.800781 55.738281 183.742188 56.523438 181.703125 C 57.308594 179.664062 58.144531 177.648438 59.03125 175.648438 C 59.914062 173.652344 60.851562 171.679688 61.832031 169.726562 C 62.816406 167.777344 63.847656 165.851562 64.925781 163.953125 C 65.636719 177.101562 73.457031 189.402344 82.621094 199.195312 C 93.082031 210.386719 105.628906 219.695312 114.648438 232.050781 Z M 114.648438 232.050781 " fill-opacity="1" fill-rule="nonzero"/><path fill="#023e8a" d="M 327.335938 229.488281 C 327.339844 232.449219 327.246094 235.40625 327.050781 238.359375 C 326.855469 241.316406 326.5625 244.261719 326.167969 247.195312 C 325.773438 250.128906 325.28125 253.046875 324.691406 255.949219 C 324.097656 258.851562 323.410156 261.726562 322.625 264.582031 C 321.839844 267.4375 320.957031 270.261719 319.980469 273.058594 C 319.003906 275.851562 317.933594 278.609375 316.769531 281.332031 C 315.605469 284.054688 314.351562 286.738281 313.007812 289.375 C 311.660156 292.011719 310.226562 294.601562 308.707031 297.144531 C 307.1875 299.683594 305.582031 302.171875 303.894531 304.601562 C 302.207031 307.035156 300.4375 309.40625 298.589844 311.71875 C 296.738281 314.03125 294.816406 316.28125 292.8125 318.460938 C 290.8125 320.644531 288.742188 322.757812 286.597656 324.800781 C 284.453125 326.84375 282.242188 328.808594 279.964844 330.703125 C 277.6875 332.59375 275.351562 334.410156 272.949219 336.144531 C 270.550781 337.878906 268.09375 339.527344 265.582031 341.097656 C 263.070312 342.664062 260.511719 344.148438 257.898438 345.542969 C 251.542969 331.527344 246.664062 316.898438 244.515625 301.699219 C 241.121094 277.585938 245.164062 251.707031 259.542969 232.0625 C 268.578125 219.707031 281.125 210.398438 291.5625 199.226562 C 301.03125 189.101562 309.085938 176.257812 309.339844 162.625 L 310 163.777344 C 312.839844 168.761719 315.347656 173.90625 317.515625 179.21875 C 319.683594 184.527344 321.5 189.953125 322.964844 195.5 C 324.425781 201.046875 325.523438 206.664062 326.257812 212.351562 C 326.988281 218.039062 327.347656 223.753906 327.335938 229.488281 Z M 327.335938 229.488281 " fill-opacity="1" fill-rule="nonzero"/><path fill="#023e8a" d="M 199.25 190.375 C 198.832031 195.550781 191.144531 206.582031 187.539062 207.183594 C 183.9375 206.582031 176.242188 195.550781 175.832031 190.375 C 176.242188 185.203125 183.9375 174.164062 187.539062 173.566406 C 191.117188 174.167969 198.8125 185.203125 199.25 190.375 Z M 199.25 190.375 " fill-opacity="1" fill-rule="nonzero"/><g clip-path="url(#e439df36df)"><path fill="#023e8a" d="M 187.511719 1.164062 L 39 33.867188 L 187.511719 66.570312 L 336.023438 33.867188 Z M 187.511719 1.164062 " fill-opacity="1" fill-rule="nonzero"/></g><g clip-path="url(#0e3b68748c)"><path fill="#0077b6" d="M 171.710938 335.15625 C 171.292969 335.160156 170.875 335.199219 170.460938 335.273438 C 170.046875 335.347656 169.644531 335.460938 169.253906 335.609375 C 168.859375 335.753906 168.480469 335.933594 168.121094 336.148438 C 167.757812 336.363281 167.417969 336.609375 167.101562 336.882812 C 166.78125 337.15625 166.492188 337.457031 166.226562 337.78125 C 165.960938 338.109375 165.726562 338.457031 165.523438 338.824219 C 165.320312 339.191406 165.148438 339.574219 165.015625 339.972656 C 164.878906 340.367188 164.777344 340.773438 164.714844 341.191406 C 164.351562 340.929688 163.964844 340.710938 163.558594 340.523438 C 163.148438 340.339844 162.730469 340.195312 162.292969 340.089844 C 161.859375 339.984375 161.417969 339.921875 160.972656 339.902344 C 160.523438 339.882812 160.078125 339.90625 159.636719 339.96875 C 159.195312 340.035156 158.761719 340.140625 158.339844 340.289062 C 157.917969 340.4375 157.511719 340.625 157.125 340.847656 C 156.742188 341.074219 156.378906 341.332031 156.042969 341.628906 C 155.703125 341.921875 155.398438 342.246094 155.125 342.597656 L 155.125 342.277344 C 155.125 341.8125 155.078125 341.347656 154.988281 340.890625 C 154.894531 340.433594 154.761719 339.988281 154.582031 339.558594 C 154.402344 339.125 154.183594 338.714844 153.925781 338.328125 C 153.667969 337.9375 153.371094 337.582031 153.042969 337.25 C 152.710938 336.921875 152.351562 336.625 151.964844 336.367188 C 151.574219 336.105469 151.164062 335.886719 150.734375 335.707031 C 150.304688 335.53125 149.859375 335.394531 149.402344 335.304688 C 148.941406 335.214844 148.480469 335.167969 148.011719 335.167969 C 147.546875 335.167969 147.085938 335.214844 146.625 335.304688 C 146.167969 335.394531 145.722656 335.53125 145.292969 335.707031 C 144.859375 335.886719 144.453125 336.105469 144.0625 336.367188 C 143.675781 336.625 143.316406 336.921875 142.984375 337.25 C 142.65625 337.582031 142.359375 337.9375 142.101562 338.328125 C 141.84375 338.714844 141.621094 339.125 141.445312 339.558594 C 141.265625 339.988281 141.128906 340.433594 141.039062 340.890625 C 140.949219 341.347656 140.902344 341.8125 140.902344 342.277344 L 140.902344 361.238281 C 140.898438 361.976562 141.003906 362.699219 141.226562 363.402344 C 141.445312 364.105469 141.769531 364.761719 142.195312 365.363281 C 142.621094 365.96875 143.128906 366.492188 143.71875 366.933594 C 144.308594 367.378906 144.949219 367.722656 145.648438 367.964844 C 146.34375 368.210938 147.0625 368.339844 147.800781 368.359375 C 148.539062 368.375 149.261719 368.28125 149.96875 368.074219 C 150.679688 367.863281 151.335938 367.554688 151.949219 367.140625 C 152.558594 366.722656 153.089844 366.226562 153.546875 365.644531 L 153.546875 365.976562 C 153.511719 366.441406 153.519531 366.902344 153.574219 367.363281 C 153.632812 367.824219 153.730469 368.277344 153.875 368.71875 C 154.019531 369.160156 154.207031 369.582031 154.433594 369.988281 C 154.660156 370.390625 154.925781 370.769531 155.226562 371.125 C 155.53125 371.476562 155.863281 371.796875 156.230469 372.082031 C 156.59375 372.371094 156.984375 372.617188 157.398438 372.828125 C 157.8125 373.039062 158.242188 373.207031 158.691406 373.332031 C 159.136719 373.457031 159.59375 373.539062 160.054688 373.574219 C 160.519531 373.609375 160.980469 373.601562 161.441406 373.542969 C 161.902344 373.488281 162.355469 373.390625 162.796875 373.246094 C 163.238281 373.101562 163.660156 372.914062 164.066406 372.6875 C 164.472656 372.460938 164.851562 372.195312 165.203125 371.894531 C 165.554688 371.589844 165.875 371.257812 166.164062 370.890625 C 166.449219 370.527344 166.699219 370.136719 166.910156 369.722656 C 167.117188 369.308594 167.285156 368.878906 167.410156 368.429688 C 167.535156 367.984375 167.617188 367.527344 167.652344 367.066406 C 168.871094 367.925781 170.222656 368.355469 171.710938 368.359375 C 172.179688 368.359375 172.640625 368.3125 173.097656 368.21875 C 173.554688 368.128906 174 367.992188 174.429688 367.8125 C 174.859375 367.632812 175.269531 367.414062 175.65625 367.15625 C 176.046875 366.894531 176.402344 366.601562 176.734375 366.269531 C 177.0625 365.941406 177.359375 365.582031 177.617188 365.195312 C 177.878906 364.804688 178.097656 364.398438 178.277344 363.964844 C 178.453125 363.535156 178.589844 363.09375 178.683594 362.632812 C 178.773438 362.175781 178.820312 361.714844 178.824219 361.25 L 178.824219 342.277344 C 178.820312 341.8125 178.777344 341.347656 178.683594 340.890625 C 178.59375 340.433594 178.457031 339.988281 178.28125 339.554688 C 178.101562 339.125 177.882812 338.714844 177.621094 338.328125 C 177.363281 337.9375 177.070312 337.578125 176.738281 337.246094 C 176.410156 336.917969 176.050781 336.621094 175.660156 336.363281 C 175.273438 336.101562 174.863281 335.882812 174.433594 335.703125 C 174 335.523438 173.558594 335.386719 173.097656 335.296875 C 172.640625 335.203125 172.179688 335.15625 171.710938 335.15625 Z M 171.710938 335.15625 " fill-opacity="1" fill-rule="nonzero"/></g><g clip-path="url(#74bc8efbbe)"><path fill="#0077b6" d="M 203.308594 335.15625 C 203.730469 335.160156 204.148438 335.199219 204.558594 335.273438 C 204.972656 335.347656 205.375 335.460938 205.769531 335.609375 C 206.164062 335.753906 206.542969 335.9375 206.902344 336.152344 C 207.265625 336.363281 207.605469 336.609375 207.921875 336.882812 C 208.242188 337.15625 208.53125 337.457031 208.796875 337.785156 C 209.0625 338.109375 209.296875 338.457031 209.5 338.824219 C 209.703125 339.191406 209.875 339.574219 210.011719 339.972656 C 210.148438 340.367188 210.246094 340.773438 210.3125 341.191406 C 210.675781 340.929688 211.0625 340.707031 211.472656 340.519531 C 211.878906 340.332031 212.300781 340.1875 212.738281 340.082031 C 213.171875 339.976562 213.617188 339.914062 214.0625 339.894531 C 214.511719 339.871094 214.957031 339.894531 215.402344 339.960938 C 215.84375 340.023438 216.277344 340.132812 216.703125 340.28125 C 217.125 340.429688 217.53125 340.617188 217.917969 340.839844 C 218.304688 341.066406 218.667969 341.328125 219.007812 341.625 C 219.34375 341.917969 219.648438 342.246094 219.925781 342.597656 L 219.925781 342.277344 C 219.9375 341.820312 219.992188 341.367188 220.09375 340.917969 C 220.195312 340.472656 220.335938 340.039062 220.519531 339.617188 C 220.707031 339.199219 220.929688 338.800781 221.191406 338.421875 C 221.449219 338.046875 221.746094 337.699219 222.074219 337.378906 C 222.402344 337.058594 222.761719 336.773438 223.144531 336.523438 C 223.527344 336.269531 223.933594 336.058594 224.355469 335.886719 C 224.78125 335.714844 225.21875 335.582031 225.667969 335.496094 C 226.121094 335.40625 226.574219 335.363281 227.03125 335.363281 C 227.492188 335.363281 227.945312 335.40625 228.394531 335.496094 C 228.847656 335.582031 229.285156 335.714844 229.707031 335.886719 C 230.132812 336.058594 230.539062 336.269531 230.921875 336.523438 C 231.304688 336.773438 231.660156 337.058594 231.992188 337.378906 C 232.320312 337.699219 232.613281 338.046875 232.875 338.421875 C 233.136719 338.800781 233.359375 339.199219 233.542969 339.617188 C 233.726562 340.039062 233.871094 340.472656 233.972656 340.917969 C 234.070312 341.367188 234.128906 341.820312 234.140625 342.277344 L 234.140625 361.238281 C 234.144531 361.976562 234.035156 362.695312 233.816406 363.398438 C 233.59375 364.101562 233.273438 364.757812 232.847656 365.359375 C 232.421875 365.960938 231.914062 366.484375 231.324219 366.929688 C 230.734375 367.371094 230.09375 367.714844 229.398438 367.957031 C 228.699219 368.203125 227.984375 368.332031 227.246094 368.351562 C 226.507812 368.371094 225.785156 368.273438 225.078125 368.066406 C 224.371094 367.859375 223.710938 367.550781 223.101562 367.136719 C 222.492188 366.722656 221.957031 366.226562 221.503906 365.644531 L 221.503906 365.976562 C 221.539062 366.441406 221.527344 366.902344 221.472656 367.363281 C 221.417969 367.824219 221.316406 368.277344 221.171875 368.71875 C 221.027344 369.160156 220.84375 369.582031 220.613281 369.988281 C 220.386719 370.390625 220.121094 370.769531 219.820312 371.125 C 219.515625 371.476562 219.183594 371.796875 218.816406 372.082031 C 218.453125 372.371094 218.0625 372.617188 217.648438 372.828125 C 217.234375 373.039062 216.804688 373.207031 216.355469 373.332031 C 215.910156 373.457031 215.453125 373.539062 214.988281 373.574219 C 214.527344 373.609375 214.066406 373.597656 213.601562 373.542969 C 213.140625 373.488281 212.691406 373.390625 212.25 373.246094 C 211.808594 373.101562 211.382812 372.914062 210.980469 372.6875 C 210.574219 372.460938 210.195312 372.195312 209.84375 371.890625 C 209.488281 371.589844 209.167969 371.257812 208.882812 370.890625 C 208.59375 370.527344 208.347656 370.136719 208.136719 369.722656 C 207.925781 369.308594 207.757812 368.878906 207.632812 368.429688 C 207.507812 367.984375 207.425781 367.527344 207.390625 367.066406 C 206.175781 367.925781 204.820312 368.359375 203.332031 368.359375 C 202.863281 368.359375 202.402344 368.3125 201.945312 368.21875 C 201.488281 368.128906 201.046875 367.992188 200.613281 367.8125 C 200.183594 367.632812 199.773438 367.414062 199.386719 367.152344 C 199 366.894531 198.640625 366.601562 198.3125 366.269531 C 197.980469 365.941406 197.6875 365.582031 197.429688 365.195312 C 197.167969 364.804688 196.949219 364.398438 196.769531 363.964844 C 196.59375 363.535156 196.457031 363.089844 196.367188 362.632812 C 196.273438 362.175781 196.226562 361.714844 196.226562 361.25 L 196.226562 342.277344 C 196.226562 341.8125 196.273438 341.351562 196.363281 340.894531 C 196.453125 340.4375 196.589844 339.992188 196.765625 339.5625 C 196.945312 339.132812 197.164062 338.722656 197.421875 338.335938 C 197.679688 337.945312 197.972656 337.585938 198.300781 337.257812 C 198.628906 336.925781 198.988281 336.632812 199.371094 336.371094 C 199.757812 336.113281 200.167969 335.890625 200.597656 335.710938 C 201.027344 335.53125 201.46875 335.394531 201.925781 335.300781 C 202.382812 335.207031 202.84375 335.160156 203.308594 335.15625 Z M 203.308594 335.15625 " fill-opacity="1" fill-rule="nonzero"/></g><path fill="#ea392c" d="M 169.4375 251.683594 C 165.433594 251.683594 162.414062 247.8125 162.414062 242.675781 C 162.414062 241.363281 163.621094 240.304688 165.132812 240.304688 C 166.648438 240.304688 167.855469 241.363281 167.855469 242.675781 C 167.855469 245.320312 169.0625 246.820312 169.519531 246.945312 C 169.894531 246.820312 171.101562 245.3125 171.101562 242.675781 C 171.101562 241.363281 172.308594 240.304688 173.824219 240.304688 C 175.335938 240.304688 176.542969 241.363281 176.542969 242.675781 C 176.46875 247.8125 173.449219 251.683594 169.4375 251.683594 Z M 169.4375 251.683594 " fill-opacity="1" fill-rule="nonzero"/><path fill="#ea392c" d="M 205.582031 251.683594 C 201.578125 251.683594 198.554688 247.8125 198.554688 242.675781 C 198.554688 241.363281 199.769531 240.304688 201.273438 240.304688 C 202.78125 240.304688 203.996094 241.363281 203.996094 242.675781 C 203.996094 245.320312 205.203125 246.820312 205.660156 246.945312 C 206.035156 246.820312 207.238281 245.3125 207.238281 242.675781 C 207.238281 241.363281 208.449219 240.304688 209.957031 240.304688 C 211.464844 240.304688 212.679688 241.363281 212.679688 242.675781 C 212.613281 247.8125 209.589844 251.683594 205.582031 251.683594 Z M 205.582031 251.683594 " fill-opacity="1" fill-rule="nonzero"/><path fill="#ea392c" d="M 150.695312 273.996094 C 146.691406 273.996094 143.671875 270.121094 143.671875 264.984375 C 143.671875 263.679688 144.878906 262.613281 146.390625 262.613281 C 147.90625 262.613281 149.113281 263.703125 149.113281 264.984375 C 149.113281 267.628906 150.320312 269.132812 150.777344 269.257812 C 151.152344 269.132812 152.359375 267.625 152.359375 264.984375 C 152.359375 263.679688 153.566406 262.613281 155.082031 262.613281 C 156.59375 262.613281 157.800781 263.703125 157.800781 264.984375 C 157.726562 270.121094 154.707031 273.996094 150.695312 273.996094 Z M 150.695312 273.996094 " fill-opacity="1" fill-rule="nonzero"/><path fill="#ea392c" d="M 187.511719 273.996094 C 183.507812 273.996094 180.480469 270.121094 180.480469 264.984375 C 180.480469 263.679688 181.695312 262.613281 183.203125 262.613281 C 184.710938 262.613281 185.921875 263.703125 185.921875 264.984375 C 185.921875 267.628906 187.128906 269.132812 187.585938 269.257812 C 187.960938 269.132812 189.164062 267.625 189.164062 264.984375 C 189.164062 263.679688 190.378906 262.613281 191.886719 262.613281 C 193.390625 262.613281 194.605469 263.703125 194.605469 264.984375 C 194.539062 270.121094 191.519531 273.996094 187.511719 273.996094 Z M 187.511719 273.996094 " fill-opacity="1" fill-rule="nonzero"/><path fill="#ea392c" d="M 224.324219 273.996094 C 220.320312 273.996094 217.296875 270.121094 217.296875 264.984375 C 217.296875 263.679688 218.511719 262.613281 220.015625 262.613281 C 221.523438 262.613281 222.738281 263.703125 222.738281 264.984375 C 222.738281 267.628906 223.941406 269.132812 224.402344 269.257812 C 224.777344 269.132812 225.980469 267.625 225.980469 264.984375 C 225.980469 263.679688 227.191406 262.613281 228.699219 262.613281 C 230.207031 262.613281 231.421875 263.703125 231.421875 264.984375 C 231.351562 270.121094 228.335938 273.996094 224.324219 273.996094 Z M 224.324219 273.996094 " fill-opacity="1" fill-rule="nonzero"/><path fill="#ea392c" d="M 150.695312 318.617188 C 146.691406 318.617188 143.671875 314.746094 143.671875 309.609375 C 143.671875 308.304688 144.878906 307.242188 146.390625 307.242188 C 147.90625 307.242188 149.113281 308.304688 149.113281 309.609375 C 149.113281 312.253906 150.320312 313.753906 150.777344 313.882812 C 151.152344 313.753906 152.359375 312.253906 152.359375 309.609375 C 152.359375 308.304688 153.566406 307.242188 155.082031 307.242188 C 156.59375 307.242188 157.800781 308.304688 157.800781 309.609375 C 157.726562 314.746094 154.707031 318.617188 150.695312 318.617188 Z M 150.695312 318.617188 " fill-opacity="1" fill-rule="nonzero"/><path fill="#ea392c" d="M 187.511719 318.617188 C 183.507812 318.617188 180.480469 314.746094 180.480469 309.609375 C 180.480469 308.304688 181.695312 307.242188 183.203125 307.242188 C 184.710938 307.242188 185.921875 308.304688 185.921875 309.609375 C 185.921875 312.253906 187.128906 313.753906 187.585938 313.882812 C 187.960938 313.753906 189.164062 312.253906 189.164062 309.609375 C 189.164062 308.304688 190.378906 307.242188 191.886719 307.242188 C 193.390625 307.242188 194.605469 308.304688 194.605469 309.609375 C 194.539062 314.746094 191.519531 318.617188 187.511719 318.617188 Z M 187.511719 318.617188 " fill-opacity="1" fill-rule="nonzero"/><path fill="#ea392c" d="M 224.324219 318.617188 C 220.320312 318.617188 217.296875 314.746094 217.296875 309.609375 C 217.296875 308.304688 218.511719 307.242188 220.015625 307.242188 C 221.523438 307.242188 222.738281 308.304688 222.738281 309.609375 C 222.738281 312.253906 223.941406 313.753906 224.402344 313.882812 C 224.777344 313.753906 225.980469 312.253906 225.980469 309.609375 C 225.980469 308.304688 227.191406 307.242188 228.699219 307.242188 C 230.207031 307.242188 231.421875 308.304688 231.421875 309.609375 C 231.351562 314.746094 228.335938 318.617188 224.324219 318.617188 Z M 224.324219 318.617188 " fill-opacity="1" fill-rule="nonzero"/><path fill="#ea392c" d="M 169.4375 296.308594 C 165.433594 296.308594 162.414062 292.433594 162.414062 287.296875 C 162.414062 285.992188 163.621094 284.929688 165.132812 284.929688 C 166.648438 284.929688 167.855469 285.992188 167.855469 287.296875 C 167.855469 289.941406 169.0625 291.441406 169.519531 291.574219 C 169.894531 291.441406 171.101562 289.941406 171.101562 287.296875 C 171.101562 285.992188 172.308594 284.929688 173.824219 284.929688 C 175.335938 284.929688 176.542969 285.992188 176.542969 287.296875 C 176.46875 292.433594 173.449219 296.308594 169.4375 296.308594 Z M 169.4375 296.308594 " fill-opacity="1" fill-rule="nonzero"/><path fill="#ea392c" d="M 205.582031 296.308594 C 201.578125 296.308594 198.554688 292.433594 198.554688 287.296875 C 198.554688 285.992188 199.769531 284.929688 201.273438 284.929688 C 202.78125 284.929688 203.996094 285.992188 203.996094 287.296875 C 203.996094 289.941406 205.203125 291.441406 205.660156 291.574219 C 206.035156 291.441406 207.238281 289.941406 207.238281 287.296875 C 207.238281 285.992188 208.449219 284.929688 209.957031 284.929688 C 211.464844 284.929688 212.679688 285.992188 212.679688 287.296875 C 212.613281 292.433594 209.589844 296.308594 205.582031 296.308594 Z M 205.582031 296.308594 " fill-opacity="1" fill-rule="nonzero"/></svg>